<?xml version="1.0" encoding="UTF-8" standalone="no"?>
<!DOCTYPE svg PUBLIC "-//W3C//DTD SVG 1.1//EN"
 "http://www.w3.org/Graphics/SVG/1.1/DTD/svg11.dtd">
<!-- Generated by graphviz version 14.1.2 (20260126.1125)
 -->
<!-- Title: xband_leo_image_link_high_level Pages: 1 -->
<svg width="900pt" height="322pt"
 viewBox="0.00 0.00 900.00 322.00" xmlns="http://www.w3.org/2000/svg" xmlns:xlink="http://www.w3.org/1999/xlink">
<g id="graph0" class="graph" transform="scale(1 1) rotate(0) translate(12.96 308.85)">
<title>xband_leo_image_link_high_level</title>
<polygon fill="white" stroke="none" points="-12.96,12.96 -12.96,-308.85 886.96,-308.85 886.96,12.96 -12.96,12.96"/>
<text xml:space="preserve" text-anchor="middle" x="437" y="-6.7" font-family="Helvetica,sans-Serif" font-size="9.00">High&#45;level architecture of the GNU Radio image&#45;transmission and LEO downlink simulation.</text>
<g id="clust1" class="cluster">
<title>cluster_source</title>
<path fill="white" stroke="#555555" stroke-width="1.1" d="M20,-140.75C20,-140.75 154,-140.75 154,-140.75 160,-140.75 166,-146.75 166,-152.75 166,-152.75 166,-245.39 166,-245.39 166,-251.39 160,-257.39 154,-257.39 154,-257.39 20,-257.39 20,-257.39 14,-257.39 8,-251.39 8,-245.39 8,-245.39 8,-152.75 8,-152.75 8,-146.75 14,-140.75 20,-140.75"/>
<text xml:space="preserve" text-anchor="middle" x="87" y="-148" font-family="Helvetica,sans-Serif" font-weight="bold" font-size="10.00">SOURCE</text>
</g>
<g id="clust2" class="cluster">
<title>cluster_transmitter</title>
<path fill="white" stroke="#555555" stroke-width="1.1" d="M186,-117.87C186,-117.87 330,-117.87 330,-117.87 336,-117.87 342,-123.87 342,-129.88 342,-129.88 342,-268.26 342,-268.26 342,-274.26 336,-280.26 330,-280.26 330,-280.26 186,-280.26 186,-280.26 180,-280.26 174,-274.26 174,-268.26 174,-268.26 174,-129.88 174,-129.88 174,-123.88 180,-117.87 186,-117.87"/>
<text xml:space="preserve" text-anchor="middle" x="258" y="-125.12" font-family="Helvetica,sans-Serif" font-weight="bold" font-size="10.00">TRANSMITTER</text>
</g>
<g id="clust3" class="cluster">
<title>cluster_channel</title>
<path fill="white" stroke="#555555" stroke-width="1.1" d="M362,-125.5C362,-125.5 506,-125.5 506,-125.5 512,-125.5 518,-131.5 518,-137.5 518,-137.5 518,-260.64 518,-260.64 518,-266.64 512,-272.64 506,-272.64 506,-272.64 362,-272.64 362,-272.64 356,-272.64 350,-266.64 350,-260.64 350,-260.64 350,-137.5 350,-137.5 350,-131.5 356,-125.5 362,-125.5"/>
<text xml:space="preserve" text-anchor="middle" x="434" y="-132.75" font-family="Helvetica,sans-Serif" font-weight="bold" font-size="10.00">CHANNEL</text>
</g>
<g id="clust4" class="cluster">
<title>cluster_receiver</title>
<path fill="white" stroke="#555555" stroke-width="1.1" d="M538,-110.25C538,-110.25 688,-110.25 688,-110.25 694,-110.25 700,-116.25 700,-122.25 700,-122.25 700,-275.89 700,-275.89 700,-281.89 694,-287.89 688,-287.89 688,-287.89 538,-287.89 538,-287.89 532,-287.89 526,-281.89 526,-275.89 526,-275.89 526,-122.25 526,-122.25 526,-116.25 532,-110.25 538,-110.25"/>
<text xml:space="preserve" text-anchor="middle" x="613" y="-117.5" font-family="Helvetica,sans-Serif" font-weight="bold" font-size="10.00">RECEIVER</text>
</g>
<g id="clust5" class="cluster">
<title>cluster_output</title>
<path fill="white" stroke="#555555" stroke-width="1.1" d="M720,-140.75C720,-140.75 854,-140.75 854,-140.75 860,-140.75 866,-146.75 866,-152.75 866,-152.75 866,-245.39 866,-245.39 866,-251.39 860,-257.39 854,-257.39 854,-257.39 720,-257.39 720,-257.39 714,-257.39 708,-251.39 708,-245.39 708,-245.39 708,-152.75 708,-152.75 708,-146.75 714,-140.75 720,-140.75"/>
<text xml:space="preserve" text-anchor="middle" x="787" y="-148" font-family="Helvetica,sans-Serif" font-weight="bold" font-size="10.00">OUTPUT</text>
</g>
<g id="clust7" class="cluster">
<title>cluster_measurements</title>
<path fill="white" stroke="#777777" stroke-dasharray="5,2" d="M175,-27.25C175,-27.25 678,-27.25 678,-27.25 684,-27.25 690,-33.25 690,-39.25 690,-39.25 690,-88 690,-88 690,-94 684,-100 678,-100 678,-100 175,-100 175,-100 169,-100 163,-94 163,-88 163,-88 163,-39.25 163,-39.25 163,-33.25 169,-27.25 175,-27.25"/>
<text xml:space="preserve" text-anchor="middle" x="426.5" y="-34.5" font-family="Helvetica,sans-Serif" font-weight="bold" font-size="10.00">MEASUREMENTS AND DIAGNOSTICS</text>
</g>
<!-- source&#45;&gt;transmitter -->
<g id="edge1" class="edge">
<title>source&#45;&gt;transmitter</title>
<path fill="none" stroke="#222222" stroke-width="1.35" d="M158.03,-209.25C158.03,-209.25 172.14,-209.25 172.14,-209.25"/>
<polygon fill="#222222" stroke="#222222" stroke-width="1.35" points="172.14,-211.77 179.34,-209.25 172.14,-206.73 172.14,-211.77"/>
</g>
<!-- transmitter&#45;&gt;channel -->
<g id="edge2" class="edge">
<title>transmitter&#45;&gt;channel</title>
<path fill="none" stroke="#222222" stroke-width="1.35" d="M334.68,-209.25C334.68,-209.25 348.9,-209.25 348.9,-209.25"/>
<polygon fill="#222222" stroke="#222222" stroke-width="1.35" points="348.9,-211.77 356.1,-209.25 348.9,-206.73 348.9,-211.77"/>
</g>
<!-- channel&#45;&gt;receiver -->
<g id="edge3" class="edge">
<title>channel&#45;&gt;receiver</title>
<path fill="none" stroke="#222222" stroke-width="1.35" d="M509.91,-209.25C509.91,-209.25 524,-209.25 524,-209.25"/>
<polygon fill="#222222" stroke="#222222" stroke-width="1.35" points="524,-211.77 531.2,-209.25 524,-206.73 524,-211.77"/>
</g>
<!-- channel&#45;&gt;channel_log -->
<g id="edge7" class="edge">
<title>channel&#45;&gt;channel_log</title>
<path fill="none" stroke="#666666" stroke-dasharray="5,2" d="M371.94,-153.96C371.94,-153.96 371.94,-100.9 371.94,-100.9"/>
<polygon fill="#666666" stroke="#666666" points="374.46,-100.9 371.94,-93.7 369.42,-100.9 374.46,-100.9"/>
</g>
<!-- channel&#45;&gt;spectrum -->
<g id="edge8" class="edge">
<title>channel&#45;&gt;spectrum</title>
<path fill="none" stroke="#666666" stroke-dasharray="5,2" d="M455.69,-153.96C455.69,-153.96 455.69,-100.9 455.69,-100.9"/>
<polygon fill="#666666" stroke="#666666" points="458.21,-100.9 455.69,-93.7 453.17,-100.9 458.21,-100.9"/>
</g>
<!-- receiver&#45;&gt;output -->
<g id="edge4" class="edge">
<title>receiver&#45;&gt;output</title>
<path fill="none" stroke="#222222" stroke-width="1.35" d="M692.62,-209.25C692.62,-209.25 706.45,-209.25 706.45,-209.25"/>
<polygon fill="#222222" stroke="#222222" stroke-width="1.35" points="706.45,-211.77 713.65,-209.25 706.45,-206.73 706.45,-211.77"/>
</g>
<!-- receiver&#45;&gt;constellation -->
<g id="edge9" class="edge">
<title>receiver&#45;&gt;constellation</title>
<path fill="none" stroke="#666666" stroke-dasharray="5,2" d="M613,-138.55C613,-138.55 613,-101.03 613,-101.03"/>
<polygon fill="#666666" stroke="#666666" points="615.52,-101.03 613,-93.83 610.48,-101.03 615.52,-101.03"/>
</g>
<!-- channel_log&#45;&gt;spectrum -->
<!-- spectrum&#45;&gt;constellation -->
<!-- source -->
<g id="node1" class="node">
<title>source</title>
<path fill="#f7f7f7" stroke="#333333" stroke-width="1.1" d="M145.63,-249.39C145.63,-249.39 28.37,-249.39 28.37,-249.39 22.37,-249.39 16.36,-243.39 16.36,-237.39 16.36,-237.39 16.36,-181.5 16.36,-181.5 16.36,-175.5 22.36,-169.5 28.36,-169.5 28.36,-169.5 145.63,-169.5 145.63,-169.5 151.63,-169.5 157.63,-175.5 157.63,-181.5 157.63,-181.5 157.63,-237.39 157.63,-237.39 157.63,-243.39 151.63,-249.39 145.63,-249.39"/>
<text xml:space="preserve" text-anchor="start" x="25.12" y="-232.62" font-family="Helvetica,sans-Serif" font-weight="bold" font-size="11.00">Prepared bit stream</text>
<text xml:space="preserve" text-anchor="start" x="25.12" y="-210.02" font-family="Helvetica,sans-Serif" font-size="9.00">RGB8, MSB first</text>
<text xml:space="preserve" text-anchor="start" x="25.12" y="-194.77" font-family="Helvetica,sans-Serif" font-size="9.00">Training + payload + tail</text>
<text xml:space="preserve" text-anchor="start" x="25.12" y="-179.52" font-family="Helvetica,sans-Serif" font-size="9.00">Logical&#45;bit file</text>
</g>
<!-- transmitter -->
<g id="node2" class="node">
<title>transmitter</title>
<path fill="#eaeaea" stroke="#333333" stroke-width="1.1" d="M322.26,-272.26C322.26,-272.26 193.74,-272.26 193.74,-272.26 187.74,-272.26 181.74,-266.26 181.74,-260.26 181.74,-260.26 181.74,-158.62 181.74,-158.62 181.74,-152.62 187.74,-146.62 193.74,-146.62 193.74,-146.62 322.26,-146.62 322.26,-146.62 328.26,-146.62 334.26,-152.62 334.26,-158.62 334.26,-158.62 334.26,-260.26 334.26,-260.26 334.26,-266.26 328.26,-272.26 322.26,-272.26"/>
<text xml:space="preserve" text-anchor="start" x="210.38" y="-255.5" font-family="Helvetica,sans-Serif" font-weight="bold" font-size="11.00">Coded QPSK TX</text>
<text xml:space="preserve" text-anchor="start" x="190.5" y="-232.89" font-family="Helvetica,sans-Serif" font-size="9.00">Rate&#45;1/2 convolutional coding</text>
<text xml:space="preserve" text-anchor="start" x="190.5" y="-217.64" font-family="Helvetica,sans-Serif" font-size="9.00">K = 7; [109, 79]</text>
<text xml:space="preserve" text-anchor="start" x="190.5" y="-202.39" font-family="Helvetica,sans-Serif" font-size="9.00">Differential Gray QPSK</text>
<text xml:space="preserve" text-anchor="start" x="190.5" y="-187.14" font-family="Helvetica,sans-Serif" font-size="9.00">RRC: α = 0.35</text>
<text xml:space="preserve" text-anchor="start" x="190.5" y="-171.89" font-family="Helvetica,sans-Serif" font-size="9.00">2 samples/symbol</text>
<text xml:space="preserve" text-anchor="start" x="190.5" y="-156.64" font-family="Helvetica,sans-Serif" font-size="9.00">Amplitude scaling + pacing</text>
</g>
<!-- channel -->
<g id="node3" class="node">
<title>channel</title>
<path fill="#dcdcdc" stroke="#333333" stroke-width="1.1" d="M497.51,-264.64C497.51,-264.64 370.49,-264.64 370.49,-264.64 364.49,-264.64 358.49,-258.64 358.49,-252.64 358.49,-252.64 358.49,-166.25 358.49,-166.25 358.49,-160.25 364.49,-154.25 370.49,-154.25 370.49,-154.25 497.51,-154.25 497.51,-154.25 503.51,-154.25 509.51,-160.25 509.51,-166.25 509.51,-166.25 509.51,-252.64 509.51,-252.64 509.51,-258.64 503.51,-264.64 497.51,-264.64"/>
<text xml:space="preserve" text-anchor="start" x="367.25" y="-247.87" font-family="Helvetica,sans-Serif" font-weight="bold" font-size="11.00">gr&#45;leo X&#45;band channel</text>
<text xml:space="preserve" text-anchor="start" x="367.25" y="-225.27" font-family="Helvetica,sans-Serif" font-size="9.00">7.812 GHz carrier</text>
<text xml:space="preserve" text-anchor="start" x="367.25" y="-210.02" font-family="Helvetica,sans-Serif" font-size="9.00">NOAA&#45;20&#45;inspired orbit</text>
<text xml:space="preserve" text-anchor="start" x="367.25" y="-194.77" font-family="Helvetica,sans-Serif" font-size="9.00">Zawiya ground station</text>
<text xml:space="preserve" text-anchor="start" x="367.25" y="-179.52" font-family="Helvetica,sans-Serif" font-size="9.00">Orbital Doppler</text>
<text xml:space="preserve" text-anchor="start" x="367.25" y="-164.27" font-family="Helvetica,sans-Serif" font-size="9.00">Optional losses and noise</text>
</g>
<!-- receiver -->
<g id="node4" class="node">
<title>receiver</title>
<path fill="#eaeaea" stroke="#333333" stroke-width="1.1" d="M680.26,-279.89C680.26,-279.89 545.74,-279.89 545.74,-279.89 539.74,-279.89 533.74,-273.89 533.74,-267.89 533.74,-267.89 533.74,-151 533.74,-151 533.74,-145 539.74,-139 545.74,-139 545.74,-139 680.26,-139 680.26,-139 686.26,-139 692.26,-145 692.26,-151 692.26,-151 692.26,-267.89 692.26,-267.89 692.26,-273.89 686.26,-279.89 680.26,-279.89"/>
<text xml:space="preserve" text-anchor="start" x="542.5" y="-263.12" font-family="Helvetica,sans-Serif" font-weight="bold" font-size="11.00">Synchronized QPSK RX</text>
<text xml:space="preserve" text-anchor="start" x="542.5" y="-240.52" font-family="Helvetica,sans-Serif" font-size="9.00">AGC + matched RRC</text>
<text xml:space="preserve" text-anchor="start" x="542.5" y="-225.27" font-family="Helvetica,sans-Serif" font-size="9.00">Band&#45;edge FLL</text>
<text xml:space="preserve" text-anchor="start" x="542.5" y="-210.02" font-family="Helvetica,sans-Serif" font-size="9.00">Gardner timing</text>
<text xml:space="preserve" text-anchor="start" x="542.5" y="-194.77" font-family="Helvetica,sans-Serif" font-size="9.00">Fourth&#45;order Costas loop</text>
<text xml:space="preserve" text-anchor="start" x="542.5" y="-179.52" font-family="Helvetica,sans-Serif" font-size="9.00">QPSK decisions</text>
<text xml:space="preserve" text-anchor="start" x="542.5" y="-164.27" font-family="Helvetica,sans-Serif" font-size="9.00">Differential decoding</text>
<text xml:space="preserve" text-anchor="start" x="542.5" y="-149.02" font-family="Helvetica,sans-Serif" font-size="9.00">Rate&#45;1/2 Viterbi decoder</text>
</g>
<!-- output -->
<g id="node5" class="node">
<title>output</title>
<path fill="#f7f7f7" stroke="#333333" stroke-width="1.1" d="M846.01,-249.39C846.01,-249.39 727.99,-249.39 727.99,-249.39 721.99,-249.39 715.99,-243.39 715.99,-237.39 715.99,-237.39 715.99,-181.5 715.99,-181.5 715.99,-175.5 721.99,-169.5 727.99,-169.5 727.99,-169.5 846.01,-169.5 846.01,-169.5 852.01,-169.5 858.01,-175.5 858.01,-181.5 858.01,-181.5 858.01,-237.39 858.01,-237.39 858.01,-243.39 852.01,-249.39 846.01,-249.39"/>
<text xml:space="preserve" text-anchor="start" x="738.25" y="-232.62" font-family="Helvetica,sans-Serif" font-weight="bold" font-size="11.00">Decoded output</text>
<text xml:space="preserve" text-anchor="start" x="724.75" y="-210.02" font-family="Helvetica,sans-Serif" font-size="9.00">Logical&#45;bit file</text>
<text xml:space="preserve" text-anchor="start" x="724.75" y="-194.77" font-family="Helvetica,sans-Serif" font-size="9.00">External payload extraction</text>
<text xml:space="preserve" text-anchor="start" x="724.75" y="-179.52" font-family="Helvetica,sans-Serif" font-size="9.00">RGB reconstruction</text>
</g>
<!-- channel_log -->
<g id="node6" class="node">
<title>channel_log</title>
<path fill="#fafafa" stroke="#333333" stroke-width="0.9" d="M373.38,-92C373.38,-92 182.62,-92 182.62,-92 176.62,-92 170.62,-86 170.62,-80 170.62,-80 170.62,-68 170.62,-68 170.62,-62 176.62,-56 182.62,-56 182.62,-56 373.38,-56 373.38,-56 379.38,-56 385.38,-62 385.38,-68 385.38,-68 385.38,-80 385.38,-80 385.38,-86 379.38,-92 373.38,-92"/>
<text xml:space="preserve" text-anchor="middle" x="278" y="-76.7" font-family="Helvetica,sans-Serif" font-size="9.00">Channel CSV log</text>
<text xml:space="preserve" text-anchor="middle" x="278" y="-65.45" font-family="Helvetica,sans-Serif" font-size="9.00">range, elevation, losses, Doppler, link margin</text>
</g>
<!-- spectrum -->
<g id="node7" class="node">
<title>spectrum</title>
<path fill="#fafafa" stroke="#333333" stroke-width="0.9" d="M516.13,-92C516.13,-92 413.87,-92 413.87,-92 407.87,-92 401.87,-86 401.87,-80 401.87,-80 401.87,-68 401.87,-68 401.87,-62 407.87,-56 413.87,-56 413.87,-56 516.13,-56 516.13,-56 522.13,-56 528.13,-62 528.13,-68 528.13,-68 528.13,-80 528.13,-80 528.13,-86 522.13,-92 516.13,-92"/>
<text xml:space="preserve" text-anchor="middle" x="465" y="-76.7" font-family="Helvetica,sans-Serif" font-size="9.00">Received spectrum</text>
<text xml:space="preserve" text-anchor="middle" x="465" y="-65.45" font-family="Helvetica,sans-Serif" font-size="9.00">QT GUI frequency display</text>
</g>
<!-- constellation -->
<g id="node8" class="node">
<title>constellation</title>
<path fill="#fafafa" stroke="#333333" stroke-width="0.9" d="M669.76,-92C669.76,-92 556.24,-92 556.24,-92 550.24,-92 544.24,-86 544.24,-80 544.24,-80 544.24,-68 544.24,-68 544.24,-62 550.24,-56 556.24,-56 556.24,-56 669.76,-56 669.76,-56 675.76,-56 681.76,-62 681.76,-68 681.76,-68 681.76,-80 681.76,-80 681.76,-86 675.76,-92 669.76,-92"/>
<text xml:space="preserve" text-anchor="middle" x="613" y="-76.7" font-family="Helvetica,sans-Serif" font-size="9.00">Recovered constellation</text>
<text xml:space="preserve" text-anchor="middle" x="613" y="-65.45" font-family="Helvetica,sans-Serif" font-size="9.00">QT GUI constellation display</text>
</g>
</g>
</svg>
