<?xml version="1.0" encoding="utf-8" standalone="no"?>
<!DOCTYPE svg PUBLIC "-//W3C//DTD SVG 1.1//EN"
  "http://www.w3.org/Graphics/SVG/1.1/DTD/svg11.dtd">
<svg xmlns:xlink="http://www.w3.org/1999/xlink" width="517.423418pt" height="404.279437pt" viewBox="0 0 517.423418 404.279437" xmlns="http://www.w3.org/2000/svg" version="1.1">
 <metadata>
  <rdf:RDF xmlns:dc="http://purl.org/dc/elements/1.1/" xmlns:cc="http://creativecommons.org/ns#" xmlns:rdf="http://www.w3.org/1999/02/22-rdf-syntax-ns#">
   <cc:Work>
    <dc:type rdf:resource="http://purl.org/dc/dcmitype/StillImage"/>
    <dc:date>2026-07-19T16:19:05.060673</dc:date>
    <dc:format>image/svg+xml</dc:format>
    <dc:creator>
     <cc:Agent>
      <dc:title>Matplotlib v3.11.0, https://matplotlib.org/</dc:title>
     </cc:Agent>
    </dc:creator>
   </cc:Work>
  </rdf:RDF>
 </metadata>
 <defs>
  <style type="text/css">*{stroke-linejoin: round; stroke-linecap: butt}</style>
 </defs>
 <g id="figure_1">
  <g id="patch_1">
   <path d="M 0 404.279437 
L 517.423418 404.279437 
L 517.423418 0 
L 0 0 
z
" style="fill: #ffffff"/>
  </g>
  <g id="axes_1">
   <g id="patch_2">
    <path d="M 52.966016 174.779789 
L 503.873869 174.779789 
L 503.873869 21.406313 
L 52.966016 21.406313 
z
" style="fill: #ffffff"/>
   </g>
   <g id="matplotlib.axis_1">
    <g id="xtick_1">
     <g id="line2d_1">
      <path d="M 73.461827 174.779789 
L 73.461827 21.406313 
" clip-path="url(#p2aa8decb4a)" style="fill: none; stroke: #b0b0b0; stroke-opacity: 0.25; stroke-width: 0.8; stroke-linecap: square"/>
     </g>
     <g id="line2d_2">
      <defs>
       <path id="mdb3947d37d" d="M 0 0 
L 0 3.5 
" style="stroke: #000000; stroke-width: 0.8"/>
      </defs>
      <g>
       <use xlink:href="#mdb3947d37d" x="73.461827" y="174.779789" style="stroke: #000000; stroke-width: 0.8"/>
      </g>
     </g>
     <g id="text_1">
      <!-- 0.00 -->
      <g transform="translate(63.442296 188.61768) scale(0.09 -0.09)">
       <defs>
        <path id="DejaVuSans-13" d="M 2034 4250 
Q 1547 4250 1301 3770 
Q 1056 3291 1056 2328 
Q 1056 1369 1301 889 
Q 1547 409 2034 409 
Q 2525 409 2770 889 
Q 3016 1369 3016 2328 
Q 3016 3291 2770 3770 
Q 2525 4250 2034 4250 
z
M 2034 4750 
Q 2819 4750 3233 4129 
Q 3647 3509 3647 2328 
Q 3647 1150 3233 529 
Q 2819 -91 2034 -91 
Q 1250 -91 836 529 
Q 422 1150 422 2328 
Q 422 3509 836 4129 
Q 1250 4750 2034 4750 
z
" transform="scale(0.015625)"/>
        <path id="DejaVuSans-11" d="M 684 794 
L 1344 794 
L 1344 0 
L 684 0 
L 684 794 
z
" transform="scale(0.015625)"/>
       </defs>
       <use xlink:href="#DejaVuSans-13"/>
       <use xlink:href="#DejaVuSans-11" transform="translate(63.625 0)"/>
       <use xlink:href="#DejaVuSans-13" transform="translate(95.40625 0)"/>
       <use xlink:href="#DejaVuSans-13" transform="translate(159.03125 0)"/>
      </g>
     </g>
    </g>
    <g id="xtick_2">
     <g id="line2d_3">
      <path d="M 134.424979 174.779789 
L 134.424979 21.406313 
" clip-path="url(#p2aa8decb4a)" style="fill: none; stroke: #b0b0b0; stroke-opacity: 0.25; stroke-width: 0.8; stroke-linecap: square"/>
     </g>
     <g id="line2d_4">
      <g>
       <use xlink:href="#mdb3947d37d" x="134.424979" y="174.779789" style="stroke: #000000; stroke-width: 0.8"/>
      </g>
     </g>
     <g id="text_2">
      <!-- 0.25 -->
      <g transform="translate(124.405447 188.61768) scale(0.09 -0.09)">
       <defs>
        <path id="DejaVuSans-15" d="M 1228 531 
L 3431 531 
L 3431 0 
L 469 0 
L 469 531 
Q 828 903 1448 1529 
Q 2069 2156 2228 2338 
Q 2531 2678 2651 2914 
Q 2772 3150 2772 3378 
Q 2772 3750 2511 3984 
Q 2250 4219 1831 4219 
Q 1534 4219 1204 4116 
Q 875 4013 500 3803 
L 500 4441 
Q 881 4594 1212 4672 
Q 1544 4750 1819 4750 
Q 2544 4750 2975 4387 
Q 3406 4025 3406 3419 
Q 3406 3131 3298 2873 
Q 3191 2616 2906 2266 
Q 2828 2175 2409 1742 
Q 1991 1309 1228 531 
z
" transform="scale(0.015625)"/>
        <path id="DejaVuSans-18" d="M 691 4666 
L 3169 4666 
L 3169 4134 
L 1269 4134 
L 1269 2991 
Q 1406 3038 1543 3061 
Q 1681 3084 1819 3084 
Q 2600 3084 3056 2656 
Q 3513 2228 3513 1497 
Q 3513 744 3044 326 
Q 2575 -91 1722 -91 
Q 1428 -91 1123 -41 
Q 819 9 494 109 
L 494 744 
Q 775 591 1075 516 
Q 1375 441 1709 441 
Q 2250 441 2565 725 
Q 2881 1009 2881 1497 
Q 2881 1984 2565 2268 
Q 2250 2553 1709 2553 
Q 1456 2553 1204 2497 
Q 953 2441 691 2322 
L 691 4666 
z
" transform="scale(0.015625)"/>
       </defs>
       <use xlink:href="#DejaVuSans-13"/>
       <use xlink:href="#DejaVuSans-11" transform="translate(63.625 0)"/>
       <use xlink:href="#DejaVuSans-15" transform="translate(95.40625 0)"/>
       <use xlink:href="#DejaVuSans-18" transform="translate(159.03125 0)"/>
      </g>
     </g>
    </g>
    <g id="xtick_3">
     <g id="line2d_5">
      <path d="M 195.38813 174.779789 
L 195.38813 21.406313 
" clip-path="url(#p2aa8decb4a)" style="fill: none; stroke: #b0b0b0; stroke-opacity: 0.25; stroke-width: 0.8; stroke-linecap: square"/>
     </g>
     <g id="line2d_6">
      <g>
       <use xlink:href="#mdb3947d37d" x="195.38813" y="174.779789" style="stroke: #000000; stroke-width: 0.8"/>
      </g>
     </g>
     <g id="text_3">
      <!-- 0.50 -->
      <g transform="translate(185.368599 188.61768) scale(0.09 -0.09)">
       <use xlink:href="#DejaVuSans-13"/>
       <use xlink:href="#DejaVuSans-11" transform="translate(63.625 0)"/>
       <use xlink:href="#DejaVuSans-18" transform="translate(95.40625 0)"/>
       <use xlink:href="#DejaVuSans-13" transform="translate(159.03125 0)"/>
      </g>
     </g>
    </g>
    <g id="xtick_4">
     <g id="line2d_7">
      <path d="M 256.351281 174.779789 
L 256.351281 21.406313 
" clip-path="url(#p2aa8decb4a)" style="fill: none; stroke: #b0b0b0; stroke-opacity: 0.25; stroke-width: 0.8; stroke-linecap: square"/>
     </g>
     <g id="line2d_8">
      <g>
       <use xlink:href="#mdb3947d37d" x="256.351281" y="174.779789" style="stroke: #000000; stroke-width: 0.8"/>
      </g>
     </g>
     <g id="text_4">
      <!-- 0.75 -->
      <g transform="translate(246.33175 188.61768) scale(0.09 -0.09)">
       <defs>
        <path id="DejaVuSans-1a" d="M 525 4666 
L 3525 4666 
L 3525 4397 
L 1831 0 
L 1172 0 
L 2766 4134 
L 525 4134 
L 525 4666 
z
" transform="scale(0.015625)"/>
       </defs>
       <use xlink:href="#DejaVuSans-13"/>
       <use xlink:href="#DejaVuSans-11" transform="translate(63.625 0)"/>
       <use xlink:href="#DejaVuSans-1a" transform="translate(95.40625 0)"/>
       <use xlink:href="#DejaVuSans-18" transform="translate(159.03125 0)"/>
      </g>
     </g>
    </g>
    <g id="xtick_5">
     <g id="line2d_9">
      <path d="M 317.314433 174.779789 
L 317.314433 21.406313 
" clip-path="url(#p2aa8decb4a)" style="fill: none; stroke: #b0b0b0; stroke-opacity: 0.25; stroke-width: 0.8; stroke-linecap: square"/>
     </g>
     <g id="line2d_10">
      <g>
       <use xlink:href="#mdb3947d37d" x="317.314433" y="174.779789" style="stroke: #000000; stroke-width: 0.8"/>
      </g>
     </g>
     <g id="text_5">
      <!-- 1.00 -->
      <g transform="translate(307.294902 188.61768) scale(0.09 -0.09)">
       <defs>
        <path id="DejaVuSans-14" d="M 794 531 
L 1825 531 
L 1825 4091 
L 703 3866 
L 703 4441 
L 1819 4666 
L 2450 4666 
L 2450 531 
L 3481 531 
L 3481 0 
L 794 0 
L 794 531 
z
" transform="scale(0.015625)"/>
       </defs>
       <use xlink:href="#DejaVuSans-14"/>
       <use xlink:href="#DejaVuSans-11" transform="translate(63.625 0)"/>
       <use xlink:href="#DejaVuSans-13" transform="translate(95.40625 0)"/>
       <use xlink:href="#DejaVuSans-13" transform="translate(159.03125 0)"/>
      </g>
     </g>
    </g>
    <g id="xtick_6">
     <g id="line2d_11">
      <path d="M 378.277584 174.779789 
L 378.277584 21.406313 
" clip-path="url(#p2aa8decb4a)" style="fill: none; stroke: #b0b0b0; stroke-opacity: 0.25; stroke-width: 0.8; stroke-linecap: square"/>
     </g>
     <g id="line2d_12">
      <g>
       <use xlink:href="#mdb3947d37d" x="378.277584" y="174.779789" style="stroke: #000000; stroke-width: 0.8"/>
      </g>
     </g>
     <g id="text_6">
      <!-- 1.25 -->
      <g transform="translate(368.258053 188.61768) scale(0.09 -0.09)">
       <use xlink:href="#DejaVuSans-14"/>
       <use xlink:href="#DejaVuSans-11" transform="translate(63.625 0)"/>
       <use xlink:href="#DejaVuSans-15" transform="translate(95.40625 0)"/>
       <use xlink:href="#DejaVuSans-18" transform="translate(159.03125 0)"/>
      </g>
     </g>
    </g>
    <g id="xtick_7">
     <g id="line2d_13">
      <path d="M 439.240736 174.779789 
L 439.240736 21.406313 
" clip-path="url(#p2aa8decb4a)" style="fill: none; stroke: #b0b0b0; stroke-opacity: 0.25; stroke-width: 0.8; stroke-linecap: square"/>
     </g>
     <g id="line2d_14">
      <g>
       <use xlink:href="#mdb3947d37d" x="439.240736" y="174.779789" style="stroke: #000000; stroke-width: 0.8"/>
      </g>
     </g>
     <g id="text_7">
      <!-- 1.50 -->
      <g transform="translate(429.221205 188.61768) scale(0.09 -0.09)">
       <use xlink:href="#DejaVuSans-14"/>
       <use xlink:href="#DejaVuSans-11" transform="translate(63.625 0)"/>
       <use xlink:href="#DejaVuSans-18" transform="translate(95.40625 0)"/>
       <use xlink:href="#DejaVuSans-13" transform="translate(159.03125 0)"/>
      </g>
     </g>
    </g>
    <g id="xtick_8">
     <g id="line2d_15">
      <path d="M 500.203887 174.779789 
L 500.203887 21.406313 
" clip-path="url(#p2aa8decb4a)" style="fill: none; stroke: #b0b0b0; stroke-opacity: 0.25; stroke-width: 0.8; stroke-linecap: square"/>
     </g>
     <g id="line2d_16">
      <g>
       <use xlink:href="#mdb3947d37d" x="500.203887" y="174.779789" style="stroke: #000000; stroke-width: 0.8"/>
      </g>
     </g>
     <g id="text_8">
      <!-- 1.75 -->
      <g transform="translate(490.184356 188.61768) scale(0.09 -0.09)">
       <use xlink:href="#DejaVuSans-14"/>
       <use xlink:href="#DejaVuSans-11" transform="translate(63.625 0)"/>
       <use xlink:href="#DejaVuSans-1a" transform="translate(95.40625 0)"/>
       <use xlink:href="#DejaVuSans-18" transform="translate(159.03125 0)"/>
      </g>
     </g>
    </g>
   </g>
   <g id="matplotlib.axis_2">
    <g id="ytick_1">
     <g id="line2d_17">
      <path d="M 52.966016 162.682498 
L 503.873869 162.682498 
" clip-path="url(#p2aa8decb4a)" style="fill: none; stroke: #b0b0b0; stroke-opacity: 0.25; stroke-width: 0.8; stroke-linecap: square"/>
     </g>
     <g id="line2d_18">
      <defs>
       <path id="mc66d65cefd" d="M 0 0 
L -3.5 0 
" style="stroke: #000000; stroke-width: 0.8"/>
      </defs>
      <g>
       <use xlink:href="#mc66d65cefd" x="52.966016" y="162.682498" style="stroke: #000000; stroke-width: 0.8"/>
      </g>
     </g>
     <g id="text_9">
      <!-- 4.0 -->
      <g transform="translate(31.653203 166.101443) scale(0.09 -0.09)">
       <defs>
        <path id="DejaVuSans-17" d="M 2419 4116 
L 825 1625 
L 2419 1625 
L 2419 4116 
z
M 2253 4666 
L 3047 4666 
L 3047 1625 
L 3713 1625 
L 3713 1100 
L 3047 1100 
L 3047 0 
L 2419 0 
L 2419 1100 
L 313 1100 
L 313 1709 
L 2253 4666 
z
" transform="scale(0.015625)"/>
       </defs>
       <use xlink:href="#DejaVuSans-17"/>
       <use xlink:href="#DejaVuSans-11" transform="translate(63.625 0)"/>
       <use xlink:href="#DejaVuSans-13" transform="translate(95.40625 0)"/>
      </g>
     </g>
    </g>
    <g id="ytick_2">
     <g id="line2d_19">
      <path d="M 52.966016 136.301799 
L 503.873869 136.301799 
" clip-path="url(#p2aa8decb4a)" style="fill: none; stroke: #b0b0b0; stroke-opacity: 0.25; stroke-width: 0.8; stroke-linecap: square"/>
     </g>
     <g id="line2d_20">
      <g>
       <use xlink:href="#mc66d65cefd" x="52.966016" y="136.301799" style="stroke: #000000; stroke-width: 0.8"/>
      </g>
     </g>
     <g id="text_10">
      <!-- 4.5 -->
      <g transform="translate(31.653203 139.720745) scale(0.09 -0.09)">
       <use xlink:href="#DejaVuSans-17"/>
       <use xlink:href="#DejaVuSans-11" transform="translate(63.625 0)"/>
       <use xlink:href="#DejaVuSans-18" transform="translate(95.40625 0)"/>
      </g>
     </g>
    </g>
    <g id="ytick_3">
     <g id="line2d_21">
      <path d="M 52.966016 109.921101 
L 503.873869 109.921101 
" clip-path="url(#p2aa8decb4a)" style="fill: none; stroke: #b0b0b0; stroke-opacity: 0.25; stroke-width: 0.8; stroke-linecap: square"/>
     </g>
     <g id="line2d_22">
      <g>
       <use xlink:href="#mc66d65cefd" x="52.966016" y="109.921101" style="stroke: #000000; stroke-width: 0.8"/>
      </g>
     </g>
     <g id="text_11">
      <!-- 5.0 -->
      <g transform="translate(31.653203 113.340046) scale(0.09 -0.09)">
       <use xlink:href="#DejaVuSans-18"/>
       <use xlink:href="#DejaVuSans-11" transform="translate(63.625 0)"/>
       <use xlink:href="#DejaVuSans-13" transform="translate(95.40625 0)"/>
      </g>
     </g>
    </g>
    <g id="ytick_4">
     <g id="line2d_23">
      <path d="M 52.966016 83.540402 
L 503.873869 83.540402 
" clip-path="url(#p2aa8decb4a)" style="fill: none; stroke: #b0b0b0; stroke-opacity: 0.25; stroke-width: 0.8; stroke-linecap: square"/>
     </g>
     <g id="line2d_24">
      <g>
       <use xlink:href="#mc66d65cefd" x="52.966016" y="83.540402" style="stroke: #000000; stroke-width: 0.8"/>
      </g>
     </g>
     <g id="text_12">
      <!-- 5.5 -->
      <g transform="translate(31.653203 86.959348) scale(0.09 -0.09)">
       <use xlink:href="#DejaVuSans-18"/>
       <use xlink:href="#DejaVuSans-11" transform="translate(63.625 0)"/>
       <use xlink:href="#DejaVuSans-18" transform="translate(95.40625 0)"/>
      </g>
     </g>
    </g>
    <g id="ytick_5">
     <g id="line2d_25">
      <path d="M 52.966016 57.159704 
L 503.873869 57.159704 
" clip-path="url(#p2aa8decb4a)" style="fill: none; stroke: #b0b0b0; stroke-opacity: 0.25; stroke-width: 0.8; stroke-linecap: square"/>
     </g>
     <g id="line2d_26">
      <g>
       <use xlink:href="#mc66d65cefd" x="52.966016" y="57.159704" style="stroke: #000000; stroke-width: 0.8"/>
      </g>
     </g>
     <g id="text_13">
      <!-- 6.0 -->
      <g transform="translate(31.653203 60.578649) scale(0.09 -0.09)">
       <defs>
        <path id="DejaVuSans-19" d="M 2113 2584 
Q 1688 2584 1439 2293 
Q 1191 2003 1191 1497 
Q 1191 994 1439 701 
Q 1688 409 2113 409 
Q 2538 409 2786 701 
Q 3034 994 3034 1497 
Q 3034 2003 2786 2293 
Q 2538 2584 2113 2584 
z
M 3366 4563 
L 3366 3988 
Q 3128 4100 2886 4159 
Q 2644 4219 2406 4219 
Q 1781 4219 1451 3797 
Q 1122 3375 1075 2522 
Q 1259 2794 1537 2939 
Q 1816 3084 2150 3084 
Q 2853 3084 3261 2657 
Q 3669 2231 3669 1497 
Q 3669 778 3244 343 
Q 2819 -91 2113 -91 
Q 1303 -91 875 529 
Q 447 1150 447 2328 
Q 447 3434 972 4092 
Q 1497 4750 2381 4750 
Q 2619 4750 2861 4703 
Q 3103 4656 3366 4563 
z
" transform="scale(0.015625)"/>
       </defs>
       <use xlink:href="#DejaVuSans-19"/>
       <use xlink:href="#DejaVuSans-11" transform="translate(63.625 0)"/>
       <use xlink:href="#DejaVuSans-13" transform="translate(95.40625 0)"/>
      </g>
     </g>
    </g>
    <g id="ytick_6">
     <g id="line2d_27">
      <path d="M 52.966016 30.779005 
L 503.873869 30.779005 
" clip-path="url(#p2aa8decb4a)" style="fill: none; stroke: #b0b0b0; stroke-opacity: 0.25; stroke-width: 0.8; stroke-linecap: square"/>
     </g>
     <g id="line2d_28">
      <g>
       <use xlink:href="#mc66d65cefd" x="52.966016" y="30.779005" style="stroke: #000000; stroke-width: 0.8"/>
      </g>
     </g>
     <g id="text_14">
      <!-- 6.5 -->
      <g transform="translate(31.653203 34.197951) scale(0.09 -0.09)">
       <use xlink:href="#DejaVuSans-19"/>
       <use xlink:href="#DejaVuSans-11" transform="translate(63.625 0)"/>
       <use xlink:href="#DejaVuSans-18" transform="translate(95.40625 0)"/>
      </g>
     </g>
    </g>
    <g id="text_15">
     <!-- Logged Doppler (kHz) -->
     <g transform="translate(25.491094 147.138832) rotate(-90) scale(0.09 -0.09)">
      <defs>
       <path id="DejaVuSans-2f" d="M 628 4666 
L 1259 4666 
L 1259 531 
L 3531 531 
L 3531 0 
L 628 0 
L 628 4666 
z
" transform="scale(0.015625)"/>
       <path id="DejaVuSans-52" d="M 1959 3097 
Q 1497 3097 1228 2736 
Q 959 2375 959 1747 
Q 959 1119 1226 758 
Q 1494 397 1959 397 
Q 2419 397 2687 759 
Q 2956 1122 2956 1747 
Q 2956 2369 2687 2733 
Q 2419 3097 1959 3097 
z
M 1959 3584 
Q 2709 3584 3137 3096 
Q 3566 2609 3566 1747 
Q 3566 888 3137 398 
Q 2709 -91 1959 -91 
Q 1206 -91 779 398 
Q 353 888 353 1747 
Q 353 2609 779 3096 
Q 1206 3584 1959 3584 
z
" transform="scale(0.015625)"/>
       <path id="DejaVuSans-4a" d="M 2906 1791 
Q 2906 2416 2648 2759 
Q 2391 3103 1925 3103 
Q 1463 3103 1205 2759 
Q 947 2416 947 1791 
Q 947 1169 1205 825 
Q 1463 481 1925 481 
Q 2391 481 2648 825 
Q 2906 1169 2906 1791 
z
M 3481 434 
Q 3481 -459 3084 -895 
Q 2688 -1331 1869 -1331 
Q 1566 -1331 1297 -1286 
Q 1028 -1241 775 -1147 
L 775 -588 
Q 1028 -725 1275 -790 
Q 1522 -856 1778 -856 
Q 2344 -856 2625 -561 
Q 2906 -266 2906 331 
L 2906 616 
Q 2728 306 2450 153 
Q 2172 0 1784 0 
Q 1141 0 747 490 
Q 353 981 353 1791 
Q 353 2603 747 3093 
Q 1141 3584 1784 3584 
Q 2172 3584 2450 3431 
Q 2728 3278 2906 2969 
L 2906 3500 
L 3481 3500 
L 3481 434 
z
" transform="scale(0.015625)"/>
       <path id="DejaVuSans-48" d="M 3597 1894 
L 3597 1613 
L 953 1613 
Q 991 1019 1311 708 
Q 1631 397 2203 397 
Q 2534 397 2845 478 
Q 3156 559 3463 722 
L 3463 178 
Q 3153 47 2828 -22 
Q 2503 -91 2169 -91 
Q 1331 -91 842 396 
Q 353 884 353 1716 
Q 353 2575 817 3079 
Q 1281 3584 2069 3584 
Q 2775 3584 3186 3129 
Q 3597 2675 3597 1894 
z
M 3022 2063 
Q 3016 2534 2758 2815 
Q 2500 3097 2075 3097 
Q 1594 3097 1305 2825 
Q 1016 2553 972 2059 
L 3022 2063 
z
" transform="scale(0.015625)"/>
       <path id="DejaVuSans-47" d="M 2906 2969 
L 2906 4863 
L 3481 4863 
L 3481 0 
L 2906 0 
L 2906 525 
Q 2725 213 2448 61 
Q 2172 -91 1784 -91 
Q 1150 -91 751 415 
Q 353 922 353 1747 
Q 353 2572 751 3078 
Q 1150 3584 1784 3584 
Q 2172 3584 2448 3432 
Q 2725 3281 2906 2969 
z
M 947 1747 
Q 947 1113 1208 752 
Q 1469 391 1925 391 
Q 2381 391 2643 752 
Q 2906 1113 2906 1747 
Q 2906 2381 2643 2742 
Q 2381 3103 1925 3103 
Q 1469 3103 1208 2742 
Q 947 2381 947 1747 
z
" transform="scale(0.015625)"/>
       <path id="DejaVuSans-3" transform="scale(0.015625)"/>
       <path id="DejaVuSans-27" d="M 1259 4147 
L 1259 519 
L 2022 519 
Q 2988 519 3436 956 
Q 3884 1394 3884 2338 
Q 3884 3275 3436 3711 
Q 2988 4147 2022 4147 
L 1259 4147 
z
M 628 4666 
L 1925 4666 
Q 3281 4666 3915 4102 
Q 4550 3538 4550 2338 
Q 4550 1131 3912 565 
Q 3275 0 1925 0 
L 628 0 
L 628 4666 
z
" transform="scale(0.015625)"/>
       <path id="DejaVuSans-53" d="M 1159 525 
L 1159 -1331 
L 581 -1331 
L 581 3500 
L 1159 3500 
L 1159 2969 
Q 1341 3281 1617 3432 
Q 1894 3584 2278 3584 
Q 2916 3584 3314 3078 
Q 3713 2572 3713 1747 
Q 3713 922 3314 415 
Q 2916 -91 2278 -91 
Q 1894 -91 1617 61 
Q 1341 213 1159 525 
z
M 3116 1747 
Q 3116 2381 2855 2742 
Q 2594 3103 2138 3103 
Q 1681 3103 1420 2742 
Q 1159 2381 1159 1747 
Q 1159 1113 1420 752 
Q 1681 391 2138 391 
Q 2594 391 2855 752 
Q 3116 1113 3116 1747 
z
" transform="scale(0.015625)"/>
       <path id="DejaVuSans-4f" d="M 603 4863 
L 1178 4863 
L 1178 0 
L 603 0 
L 603 4863 
z
" transform="scale(0.015625)"/>
       <path id="DejaVuSans-55" d="M 2631 2963 
Q 2534 3019 2420 3045 
Q 2306 3072 2169 3072 
Q 1681 3072 1420 2755 
Q 1159 2438 1159 1844 
L 1159 0 
L 581 0 
L 581 3500 
L 1159 3500 
L 1159 2956 
Q 1341 3275 1631 3429 
Q 1922 3584 2338 3584 
Q 2397 3584 2469 3576 
Q 2541 3569 2628 3553 
L 2631 2963 
z
" transform="scale(0.015625)"/>
       <path id="DejaVuSans-b" d="M 1984 4856 
Q 1566 4138 1362 3434 
Q 1159 2731 1159 2009 
Q 1159 1288 1364 580 
Q 1569 -128 1984 -844 
L 1484 -844 
Q 1016 -109 783 600 
Q 550 1309 550 2009 
Q 550 2706 781 3412 
Q 1013 4119 1484 4856 
L 1984 4856 
z
" transform="scale(0.015625)"/>
       <path id="DejaVuSans-4e" d="M 581 4863 
L 1159 4863 
L 1159 1991 
L 2875 3500 
L 3609 3500 
L 1753 1863 
L 3688 0 
L 2938 0 
L 1159 1709 
L 1159 0 
L 581 0 
L 581 4863 
z
" transform="scale(0.015625)"/>
       <path id="DejaVuSans-2b" d="M 628 4666 
L 1259 4666 
L 1259 2753 
L 3553 2753 
L 3553 4666 
L 4184 4666 
L 4184 0 
L 3553 0 
L 3553 2222 
L 1259 2222 
L 1259 0 
L 628 0 
L 628 4666 
z
" transform="scale(0.015625)"/>
       <path id="DejaVuSans-5d" d="M 353 3500 
L 3084 3500 
L 3084 2975 
L 922 459 
L 3084 459 
L 3084 0 
L 275 0 
L 275 525 
L 2438 3041 
L 353 3041 
L 353 3500 
z
" transform="scale(0.015625)"/>
       <path id="DejaVuSans-c" d="M 513 4856 
L 1013 4856 
Q 1481 4119 1714 3412 
Q 1947 2706 1947 2009 
Q 1947 1309 1714 600 
Q 1481 -109 1013 -844 
L 513 -844 
Q 928 -128 1133 580 
Q 1338 1288 1338 2009 
Q 1338 2731 1133 3434 
Q 928 4138 513 4856 
z
" transform="scale(0.015625)"/>
      </defs>
      <use xlink:href="#DejaVuSans-2f"/>
      <use xlink:href="#DejaVuSans-52" transform="translate(53.96875 0)"/>
      <use xlink:href="#DejaVuSans-4a" transform="translate(115.15625 0)"/>
      <use xlink:href="#DejaVuSans-4a" transform="translate(178.640625 0)"/>
      <use xlink:href="#DejaVuSans-48" transform="translate(242.125 0)"/>
      <use xlink:href="#DejaVuSans-47" transform="translate(303.65625 0)"/>
      <use xlink:href="#DejaVuSans-3" transform="translate(367.140625 0)"/>
      <use xlink:href="#DejaVuSans-27" transform="translate(398.921875 0)"/>
      <use xlink:href="#DejaVuSans-52" transform="translate(475.921875 0)"/>
      <use xlink:href="#DejaVuSans-53" transform="translate(537.109375 0)"/>
      <use xlink:href="#DejaVuSans-53" transform="translate(600.59375 0)"/>
      <use xlink:href="#DejaVuSans-4f" transform="translate(664.078125 0)"/>
      <use xlink:href="#DejaVuSans-48" transform="translate(691.859375 0)"/>
      <use xlink:href="#DejaVuSans-55" transform="translate(753.390625 0)"/>
      <use xlink:href="#DejaVuSans-3" transform="translate(794.5 0)"/>
      <use xlink:href="#DejaVuSans-b" transform="translate(826.28125 0)"/>
      <use xlink:href="#DejaVuSans-4e" transform="translate(865.296875 0)"/>
      <use xlink:href="#DejaVuSans-2b" transform="translate(923.203125 0)"/>
      <use xlink:href="#DejaVuSans-5d" transform="translate(998.40625 0)"/>
      <use xlink:href="#DejaVuSans-c" transform="translate(1050.890625 0)"/>
     </g>
    </g>
   </g>
   <g id="line2d_29">
    <path d="M 73.461827 28.377834 
L 370.962006 129.554144 
L 445.093198 154.779368 
L 483.378057 167.808267 
L 483.378057 167.808267 
" clip-path="url(#p2aa8decb4a)" style="fill: none; stroke-dasharray: 1.5,2.475; stroke-dashoffset: 0; stroke: #000000; stroke-width: 1.5"/>
   </g>
   <g id="line2d_30">
    <path d="M 73.461827 28.377834 
L 370.962006 129.554144 
L 445.093198 154.779368 
L 483.378057 167.808267 
L 483.378057 167.808267 
" clip-path="url(#p2aa8decb4a)" style="fill: none; stroke: #000000; stroke-width: 1.5; stroke-linecap: square"/>
   </g>
   <g id="line2d_31">
    <path d="M 73.461827 28.377834 
L 370.962006 129.554144 
L 445.093198 154.779368 
L 483.378057 167.808267 
L 483.378057 167.808267 
" clip-path="url(#p2aa8decb4a)" style="fill: none; stroke-dasharray: 5.55,2.4; stroke-dashoffset: 0; stroke: #000000; stroke-width: 1.5"/>
   </g>
   <g id="line2d_32">
    <path d="M 73.461827 28.377834 
L 370.962006 129.554144 
L 445.093198 154.779368 
L 483.378057 167.808267 
L 483.378057 167.808267 
" clip-path="url(#p2aa8decb4a)" style="fill: none; stroke-dasharray: 9.6,2.4,1.5,2.4; stroke-dashoffset: 0; stroke: #000000; stroke-width: 1.5"/>
   </g>
   <g id="line2d_33">
    <path d="M 73.461827 28.377834 
L 370.962006 129.554144 
L 445.093198 154.779368 
L 483.378057 167.808267 
L 483.378057 167.808267 
" clip-path="url(#p2aa8decb4a)" style="fill: none; stroke-dasharray: 4.5,1.5,1.5,1.5; stroke-dashoffset: 0; stroke: #000000; stroke-width: 1.5"/>
   </g>
   <g id="patch_3">
    <path d="M 52.966016 174.779789 
L 52.966016 21.406313 
" style="fill: none; stroke: #000000; stroke-width: 0.8; stroke-linejoin: miter; stroke-linecap: square"/>
   </g>
   <g id="patch_4">
    <path d="M 503.873869 174.779789 
L 503.873869 21.406313 
" style="fill: none; stroke: #000000; stroke-width: 0.8; stroke-linejoin: miter; stroke-linecap: square"/>
   </g>
   <g id="patch_5">
    <path d="M 52.966016 174.779789 
L 503.873869 174.779789 
" style="fill: none; stroke: #000000; stroke-width: 0.8; stroke-linejoin: miter; stroke-linecap: square"/>
   </g>
   <g id="patch_6">
    <path d="M 52.966016 21.406313 
L 503.873869 21.406313 
" style="fill: none; stroke: #000000; stroke-width: 0.8; stroke-linejoin: miter; stroke-linecap: square"/>
   </g>
   <g id="text_16">
    <!-- Orbital Doppler versus simulated time -->
    <g transform="translate(175.209067 15.406313) scale(0.108 -0.108)">
     <defs>
      <path id="DejaVuSans-32" d="M 2522 4238 
Q 1834 4238 1429 3725 
Q 1025 3213 1025 2328 
Q 1025 1447 1429 934 
Q 1834 422 2522 422 
Q 3209 422 3611 934 
Q 4013 1447 4013 2328 
Q 4013 3213 3611 3725 
Q 3209 4238 2522 4238 
z
M 2522 4750 
Q 3503 4750 4090 4092 
Q 4678 3434 4678 2328 
Q 4678 1225 4090 567 
Q 3503 -91 2522 -91 
Q 1538 -91 948 565 
Q 359 1222 359 2328 
Q 359 3434 948 4092 
Q 1538 4750 2522 4750 
z
" transform="scale(0.015625)"/>
      <path id="DejaVuSans-45" d="M 3116 1747 
Q 3116 2381 2855 2742 
Q 2594 3103 2138 3103 
Q 1681 3103 1420 2742 
Q 1159 2381 1159 1747 
Q 1159 1113 1420 752 
Q 1681 391 2138 391 
Q 2594 391 2855 752 
Q 3116 1113 3116 1747 
z
M 1159 2969 
Q 1341 3281 1617 3432 
Q 1894 3584 2278 3584 
Q 2916 3584 3314 3078 
Q 3713 2572 3713 1747 
Q 3713 922 3314 415 
Q 2916 -91 2278 -91 
Q 1894 -91 1617 61 
Q 1341 213 1159 525 
L 1159 0 
L 581 0 
L 581 4863 
L 1159 4863 
L 1159 2969 
z
" transform="scale(0.015625)"/>
      <path id="DejaVuSans-4c" d="M 603 3500 
L 1178 3500 
L 1178 0 
L 603 0 
L 603 3500 
z
M 603 4863 
L 1178 4863 
L 1178 4134 
L 603 4134 
L 603 4863 
z
" transform="scale(0.015625)"/>
      <path id="DejaVuSans-57" d="M 1172 4494 
L 1172 3500 
L 2356 3500 
L 2356 3053 
L 1172 3053 
L 1172 1153 
Q 1172 725 1289 603 
Q 1406 481 1766 481 
L 2356 481 
L 2356 0 
L 1766 0 
Q 1100 0 847 248 
Q 594 497 594 1153 
L 594 3053 
L 172 3053 
L 172 3500 
L 594 3500 
L 594 4494 
L 1172 4494 
z
" transform="scale(0.015625)"/>
      <path id="DejaVuSans-44" d="M 2194 1759 
Q 1497 1759 1228 1600 
Q 959 1441 959 1056 
Q 959 750 1161 570 
Q 1363 391 1709 391 
Q 2188 391 2477 730 
Q 2766 1069 2766 1631 
L 2766 1759 
L 2194 1759 
z
M 3341 1997 
L 3341 0 
L 2766 0 
L 2766 531 
Q 2569 213 2275 61 
Q 1981 -91 1556 -91 
Q 1019 -91 701 211 
Q 384 513 384 1019 
Q 384 1609 779 1909 
Q 1175 2209 1959 2209 
L 2766 2209 
L 2766 2266 
Q 2766 2663 2505 2880 
Q 2244 3097 1772 3097 
Q 1472 3097 1187 3025 
Q 903 2953 641 2809 
L 641 3341 
Q 956 3463 1253 3523 
Q 1550 3584 1831 3584 
Q 2591 3584 2966 3190 
Q 3341 2797 3341 1997 
z
" transform="scale(0.015625)"/>
      <path id="DejaVuSans-59" d="M 191 3500 
L 800 3500 
L 1894 563 
L 2988 3500 
L 3597 3500 
L 2284 0 
L 1503 0 
L 191 3500 
z
" transform="scale(0.015625)"/>
      <path id="DejaVuSans-56" d="M 2834 3397 
L 2834 2853 
Q 2591 2978 2328 3040 
Q 2066 3103 1784 3103 
Q 1356 3103 1142 2972 
Q 928 2841 928 2578 
Q 928 2378 1081 2264 
Q 1234 2150 1697 2047 
L 1894 2003 
Q 2506 1872 2764 1633 
Q 3022 1394 3022 966 
Q 3022 478 2636 193 
Q 2250 -91 1575 -91 
Q 1294 -91 989 -36 
Q 684 19 347 128 
L 347 722 
Q 666 556 975 473 
Q 1284 391 1588 391 
Q 1994 391 2212 530 
Q 2431 669 2431 922 
Q 2431 1156 2273 1281 
Q 2116 1406 1581 1522 
L 1381 1569 
Q 847 1681 609 1914 
Q 372 2147 372 2553 
Q 372 3047 722 3315 
Q 1072 3584 1716 3584 
Q 2034 3584 2315 3537 
Q 2597 3491 2834 3397 
z
" transform="scale(0.015625)"/>
      <path id="DejaVuSans-58" d="M 544 1381 
L 544 3500 
L 1119 3500 
L 1119 1403 
Q 1119 906 1312 657 
Q 1506 409 1894 409 
Q 2359 409 2629 706 
Q 2900 1003 2900 1516 
L 2900 3500 
L 3475 3500 
L 3475 0 
L 2900 0 
L 2900 538 
Q 2691 219 2414 64 
Q 2138 -91 1772 -91 
Q 1169 -91 856 284 
Q 544 659 544 1381 
z
M 1991 3584 
L 1991 3584 
z
" transform="scale(0.015625)"/>
      <path id="DejaVuSans-50" d="M 3328 2828 
Q 3544 3216 3844 3400 
Q 4144 3584 4550 3584 
Q 5097 3584 5394 3201 
Q 5691 2819 5691 2113 
L 5691 0 
L 5113 0 
L 5113 2094 
Q 5113 2597 4934 2840 
Q 4756 3084 4391 3084 
Q 3944 3084 3684 2787 
Q 3425 2491 3425 1978 
L 3425 0 
L 2847 0 
L 2847 2094 
Q 2847 2600 2669 2842 
Q 2491 3084 2119 3084 
Q 1678 3084 1418 2786 
Q 1159 2488 1159 1978 
L 1159 0 
L 581 0 
L 581 3500 
L 1159 3500 
L 1159 2956 
Q 1356 3278 1631 3431 
Q 1906 3584 2284 3584 
Q 2666 3584 2933 3390 
Q 3200 3197 3328 2828 
z
" transform="scale(0.015625)"/>
     </defs>
     <use xlink:href="#DejaVuSans-32"/>
     <use xlink:href="#DejaVuSans-55" transform="translate(78.71875 0)"/>
     <use xlink:href="#DejaVuSans-45" transform="translate(119.828125 0)"/>
     <use xlink:href="#DejaVuSans-4c" transform="translate(183.3125 0)"/>
     <use xlink:href="#DejaVuSans-57" transform="translate(211.09375 0)"/>
     <use xlink:href="#DejaVuSans-44" transform="translate(250.296875 0)"/>
     <use xlink:href="#DejaVuSans-4f" transform="translate(311.578125 0)"/>
     <use xlink:href="#DejaVuSans-3" transform="translate(339.359375 0)"/>
     <use xlink:href="#DejaVuSans-27" transform="translate(371.140625 0)"/>
     <use xlink:href="#DejaVuSans-52" transform="translate(448.140625 0)"/>
     <use xlink:href="#DejaVuSans-53" transform="translate(509.328125 0)"/>
     <use xlink:href="#DejaVuSans-53" transform="translate(572.8125 0)"/>
     <use xlink:href="#DejaVuSans-4f" transform="translate(636.296875 0)"/>
     <use xlink:href="#DejaVuSans-48" transform="translate(664.078125 0)"/>
     <use xlink:href="#DejaVuSans-55" transform="translate(725.609375 0)"/>
     <use xlink:href="#DejaVuSans-3" transform="translate(766.71875 0)"/>
     <use xlink:href="#DejaVuSans-59" transform="translate(798.5 0)"/>
     <use xlink:href="#DejaVuSans-48" transform="translate(857.6875 0)"/>
     <use xlink:href="#DejaVuSans-55" transform="translate(919.21875 0)"/>
     <use xlink:href="#DejaVuSans-56" transform="translate(960.328125 0)"/>
     <use xlink:href="#DejaVuSans-58" transform="translate(1012.421875 0)"/>
     <use xlink:href="#DejaVuSans-56" transform="translate(1075.796875 0)"/>
     <use xlink:href="#DejaVuSans-3" transform="translate(1127.890625 0)"/>
     <use xlink:href="#DejaVuSans-56" transform="translate(1159.671875 0)"/>
     <use xlink:href="#DejaVuSans-4c" transform="translate(1211.765625 0)"/>
     <use xlink:href="#DejaVuSans-50" transform="translate(1239.546875 0)"/>
     <use xlink:href="#DejaVuSans-58" transform="translate(1336.953125 0)"/>
     <use xlink:href="#DejaVuSans-4f" transform="translate(1400.328125 0)"/>
     <use xlink:href="#DejaVuSans-44" transform="translate(1428.109375 0)"/>
     <use xlink:href="#DejaVuSans-57" transform="translate(1489.390625 0)"/>
     <use xlink:href="#DejaVuSans-48" transform="translate(1528.59375 0)"/>
     <use xlink:href="#DejaVuSans-47" transform="translate(1590.125 0)"/>
     <use xlink:href="#DejaVuSans-3" transform="translate(1653.609375 0)"/>
     <use xlink:href="#DejaVuSans-57" transform="translate(1685.390625 0)"/>
     <use xlink:href="#DejaVuSans-4c" transform="translate(1724.59375 0)"/>
     <use xlink:href="#DejaVuSans-50" transform="translate(1752.375 0)"/>
     <use xlink:href="#DejaVuSans-48" transform="translate(1849.78125 0)"/>
    </g>
   </g>
   <g id="legend_1">
    <g id="patch_7">
     <path d="M 424.776056 79.509047 
L 498.973869 79.509047 
Q 500.373869 79.509047 500.373869 78.109047 
L 500.373869 26.306312 
Q 500.373869 24.906313 498.973869 24.906313 
L 424.776056 24.906313 
Q 423.376056 24.906313 423.376056 26.306312 
L 423.376056 78.109047 
Q 423.376056 79.509047 424.776056 79.509047 
z
" style="fill: #ffffff; opacity: 0.8; stroke: #cccccc; stroke-linejoin: miter"/>
    </g>
    <g id="line2d_34">
     <path d="M 426.176056 30.575219 
L 433.176056 30.575219 
L 440.176056 30.575219 
" style="fill: none; stroke-dasharray: 1.5,2.475; stroke-dashoffset: 0; stroke: #000000; stroke-width: 1.5"/>
    </g>
    <g id="text_17">
     <!-- P0 logged only -->
     <g transform="translate(445.776056 33.025219) scale(0.07 -0.07)">
      <defs>
       <path id="DejaVuSans-33" d="M 1259 4147 
L 1259 2394 
L 2053 2394 
Q 2494 2394 2734 2622 
Q 2975 2850 2975 3272 
Q 2975 3691 2734 3919 
Q 2494 4147 2053 4147 
L 1259 4147 
z
M 628 4666 
L 2053 4666 
Q 2838 4666 3239 4311 
Q 3641 3956 3641 3272 
Q 3641 2581 3239 2228 
Q 2838 1875 2053 1875 
L 1259 1875 
L 1259 0 
L 628 0 
L 628 4666 
z
" transform="scale(0.015625)"/>
       <path id="DejaVuSans-51" d="M 3513 2113 
L 3513 0 
L 2938 0 
L 2938 2094 
Q 2938 2591 2744 2837 
Q 2550 3084 2163 3084 
Q 1697 3084 1428 2787 
Q 1159 2491 1159 1978 
L 1159 0 
L 581 0 
L 581 3500 
L 1159 3500 
L 1159 2956 
Q 1366 3272 1645 3428 
Q 1925 3584 2291 3584 
Q 2894 3584 3203 3211 
Q 3513 2838 3513 2113 
z
" transform="scale(0.015625)"/>
       <path id="DejaVuSans-5c" d="M 2059 -325 
Q 1816 -950 1584 -1140 
Q 1353 -1331 966 -1331 
L 506 -1331 
L 506 -850 
L 844 -850 
Q 1081 -850 1212 -737 
Q 1344 -625 1503 -206 
L 1606 56 
L 191 3500 
L 800 3500 
L 1894 763 
L 2988 3500 
L 3597 3500 
L 2059 -325 
z
" transform="scale(0.015625)"/>
      </defs>
      <use xlink:href="#DejaVuSans-33"/>
      <use xlink:href="#DejaVuSans-13" transform="translate(60.296875 0)"/>
      <use xlink:href="#DejaVuSans-3" transform="translate(123.921875 0)"/>
      <use xlink:href="#DejaVuSans-4f" transform="translate(155.703125 0)"/>
      <use xlink:href="#DejaVuSans-52" transform="translate(183.484375 0)"/>
      <use xlink:href="#DejaVuSans-4a" transform="translate(244.671875 0)"/>
      <use xlink:href="#DejaVuSans-4a" transform="translate(308.15625 0)"/>
      <use xlink:href="#DejaVuSans-48" transform="translate(371.640625 0)"/>
      <use xlink:href="#DejaVuSans-47" transform="translate(433.171875 0)"/>
      <use xlink:href="#DejaVuSans-3" transform="translate(496.65625 0)"/>
      <use xlink:href="#DejaVuSans-52" transform="translate(528.4375 0)"/>
      <use xlink:href="#DejaVuSans-51" transform="translate(589.625 0)"/>
      <use xlink:href="#DejaVuSans-4f" transform="translate(653 0)"/>
      <use xlink:href="#DejaVuSans-5c" transform="translate(680.78125 0)"/>
     </g>
    </g>
    <g id="line2d_35">
     <path d="M 426.176056 41.075766 
L 433.176056 41.075766 
L 440.176056 41.075766 
" style="fill: none; stroke: #000000; stroke-width: 1.5; stroke-linecap: square"/>
    </g>
    <g id="text_18">
     <!-- P1 -->
     <g transform="translate(445.776056 43.525766) scale(0.07 -0.07)">
      <use xlink:href="#DejaVuSans-33"/>
      <use xlink:href="#DejaVuSans-14" transform="translate(60.296875 0)"/>
     </g>
    </g>
    <g id="line2d_36">
     <path d="M 426.176056 51.576313 
L 433.176056 51.576313 
L 440.176056 51.576313 
" style="fill: none; stroke-dasharray: 5.55,2.4; stroke-dashoffset: 0; stroke: #000000; stroke-width: 1.5"/>
    </g>
    <g id="text_19">
     <!-- P2 -->
     <g transform="translate(445.776056 54.026313) scale(0.07 -0.07)">
      <use xlink:href="#DejaVuSans-33"/>
      <use xlink:href="#DejaVuSans-15" transform="translate(60.296875 0)"/>
     </g>
    </g>
    <g id="line2d_37">
     <path d="M 426.176056 62.076859 
L 433.176056 62.076859 
L 440.176056 62.076859 
" style="fill: none; stroke-dasharray: 9.6,2.4,1.5,2.4; stroke-dashoffset: 0; stroke: #000000; stroke-width: 1.5"/>
    </g>
    <g id="text_20">
     <!-- P3 -->
     <g transform="translate(445.776056 64.526859) scale(0.07 -0.07)">
      <defs>
       <path id="DejaVuSans-16" d="M 2597 2516 
Q 3050 2419 3304 2112 
Q 3559 1806 3559 1356 
Q 3559 666 3084 287 
Q 2609 -91 1734 -91 
Q 1441 -91 1130 -33 
Q 819 25 488 141 
L 488 750 
Q 750 597 1062 519 
Q 1375 441 1716 441 
Q 2309 441 2620 675 
Q 2931 909 2931 1356 
Q 2931 1769 2642 2001 
Q 2353 2234 1838 2234 
L 1294 2234 
L 1294 2753 
L 1863 2753 
Q 2328 2753 2575 2939 
Q 2822 3125 2822 3475 
Q 2822 3834 2567 4026 
Q 2313 4219 1838 4219 
Q 1578 4219 1281 4162 
Q 984 4106 628 3988 
L 628 4550 
Q 988 4650 1302 4700 
Q 1616 4750 1894 4750 
Q 2613 4750 3031 4423 
Q 3450 4097 3450 3541 
Q 3450 3153 3228 2886 
Q 3006 2619 2597 2516 
z
" transform="scale(0.015625)"/>
      </defs>
      <use xlink:href="#DejaVuSans-33"/>
      <use xlink:href="#DejaVuSans-16" transform="translate(60.296875 0)"/>
     </g>
    </g>
    <g id="line2d_38">
     <path d="M 426.176056 72.577406 
L 433.176056 72.577406 
L 440.176056 72.577406 
" style="fill: none; stroke-dasharray: 4.5,1.5,1.5,1.5; stroke-dashoffset: 0; stroke: #000000; stroke-width: 1.5"/>
    </g>
    <g id="text_21">
     <!-- P4 -->
     <g transform="translate(445.776056 75.027406) scale(0.07 -0.07)">
      <use xlink:href="#DejaVuSans-33"/>
      <use xlink:href="#DejaVuSans-17" transform="translate(60.296875 0)"/>
     </g>
    </g>
   </g>
  </g>
  <g id="axes_2">
   <g id="patch_8">
    <path d="M 52.966016 368.078734 
L 503.873869 368.078734 
L 503.873869 214.705258 
L 52.966016 214.705258 
z
" style="fill: #ffffff"/>
   </g>
   <g id="matplotlib.axis_3">
    <g id="xtick_9">
     <g id="line2d_39">
      <path d="M 73.461827 368.078734 
L 73.461827 214.705258 
" clip-path="url(#pc13149eaf3)" style="fill: none; stroke: #b0b0b0; stroke-opacity: 0.25; stroke-width: 0.8; stroke-linecap: square"/>
     </g>
     <g id="line2d_40">
      <g>
       <use xlink:href="#mdb3947d37d" x="73.461827" y="368.078734" style="stroke: #000000; stroke-width: 0.8"/>
      </g>
     </g>
     <g id="text_22">
      <!-- 0.00 -->
      <g transform="translate(63.442296 381.916625) scale(0.09 -0.09)">
       <use xlink:href="#DejaVuSans-13"/>
       <use xlink:href="#DejaVuSans-11" transform="translate(63.625 0)"/>
       <use xlink:href="#DejaVuSans-13" transform="translate(95.40625 0)"/>
       <use xlink:href="#DejaVuSans-13" transform="translate(159.03125 0)"/>
      </g>
     </g>
    </g>
    <g id="xtick_10">
     <g id="line2d_41">
      <path d="M 134.424979 368.078734 
L 134.424979 214.705258 
" clip-path="url(#pc13149eaf3)" style="fill: none; stroke: #b0b0b0; stroke-opacity: 0.25; stroke-width: 0.8; stroke-linecap: square"/>
     </g>
     <g id="line2d_42">
      <g>
       <use xlink:href="#mdb3947d37d" x="134.424979" y="368.078734" style="stroke: #000000; stroke-width: 0.8"/>
      </g>
     </g>
     <g id="text_23">
      <!-- 0.25 -->
      <g transform="translate(124.405447 381.916625) scale(0.09 -0.09)">
       <use xlink:href="#DejaVuSans-13"/>
       <use xlink:href="#DejaVuSans-11" transform="translate(63.625 0)"/>
       <use xlink:href="#DejaVuSans-15" transform="translate(95.40625 0)"/>
       <use xlink:href="#DejaVuSans-18" transform="translate(159.03125 0)"/>
      </g>
     </g>
    </g>
    <g id="xtick_11">
     <g id="line2d_43">
      <path d="M 195.38813 368.078734 
L 195.38813 214.705258 
" clip-path="url(#pc13149eaf3)" style="fill: none; stroke: #b0b0b0; stroke-opacity: 0.25; stroke-width: 0.8; stroke-linecap: square"/>
     </g>
     <g id="line2d_44">
      <g>
       <use xlink:href="#mdb3947d37d" x="195.38813" y="368.078734" style="stroke: #000000; stroke-width: 0.8"/>
      </g>
     </g>
     <g id="text_24">
      <!-- 0.50 -->
      <g transform="translate(185.368599 381.916625) scale(0.09 -0.09)">
       <use xlink:href="#DejaVuSans-13"/>
       <use xlink:href="#DejaVuSans-11" transform="translate(63.625 0)"/>
       <use xlink:href="#DejaVuSans-18" transform="translate(95.40625 0)"/>
       <use xlink:href="#DejaVuSans-13" transform="translate(159.03125 0)"/>
      </g>
     </g>
    </g>
    <g id="xtick_12">
     <g id="line2d_45">
      <path d="M 256.351281 368.078734 
L 256.351281 214.705258 
" clip-path="url(#pc13149eaf3)" style="fill: none; stroke: #b0b0b0; stroke-opacity: 0.25; stroke-width: 0.8; stroke-linecap: square"/>
     </g>
     <g id="line2d_46">
      <g>
       <use xlink:href="#mdb3947d37d" x="256.351281" y="368.078734" style="stroke: #000000; stroke-width: 0.8"/>
      </g>
     </g>
     <g id="text_25">
      <!-- 0.75 -->
      <g transform="translate(246.33175 381.916625) scale(0.09 -0.09)">
       <use xlink:href="#DejaVuSans-13"/>
       <use xlink:href="#DejaVuSans-11" transform="translate(63.625 0)"/>
       <use xlink:href="#DejaVuSans-1a" transform="translate(95.40625 0)"/>
       <use xlink:href="#DejaVuSans-18" transform="translate(159.03125 0)"/>
      </g>
     </g>
    </g>
    <g id="xtick_13">
     <g id="line2d_47">
      <path d="M 317.314433 368.078734 
L 317.314433 214.705258 
" clip-path="url(#pc13149eaf3)" style="fill: none; stroke: #b0b0b0; stroke-opacity: 0.25; stroke-width: 0.8; stroke-linecap: square"/>
     </g>
     <g id="line2d_48">
      <g>
       <use xlink:href="#mdb3947d37d" x="317.314433" y="368.078734" style="stroke: #000000; stroke-width: 0.8"/>
      </g>
     </g>
     <g id="text_26">
      <!-- 1.00 -->
      <g transform="translate(307.294902 381.916625) scale(0.09 -0.09)">
       <use xlink:href="#DejaVuSans-14"/>
       <use xlink:href="#DejaVuSans-11" transform="translate(63.625 0)"/>
       <use xlink:href="#DejaVuSans-13" transform="translate(95.40625 0)"/>
       <use xlink:href="#DejaVuSans-13" transform="translate(159.03125 0)"/>
      </g>
     </g>
    </g>
    <g id="xtick_14">
     <g id="line2d_49">
      <path d="M 378.277584 368.078734 
L 378.277584 214.705258 
" clip-path="url(#pc13149eaf3)" style="fill: none; stroke: #b0b0b0; stroke-opacity: 0.25; stroke-width: 0.8; stroke-linecap: square"/>
     </g>
     <g id="line2d_50">
      <g>
       <use xlink:href="#mdb3947d37d" x="378.277584" y="368.078734" style="stroke: #000000; stroke-width: 0.8"/>
      </g>
     </g>
     <g id="text_27">
      <!-- 1.25 -->
      <g transform="translate(368.258053 381.916625) scale(0.09 -0.09)">
       <use xlink:href="#DejaVuSans-14"/>
       <use xlink:href="#DejaVuSans-11" transform="translate(63.625 0)"/>
       <use xlink:href="#DejaVuSans-15" transform="translate(95.40625 0)"/>
       <use xlink:href="#DejaVuSans-18" transform="translate(159.03125 0)"/>
      </g>
     </g>
    </g>
    <g id="xtick_15">
     <g id="line2d_51">
      <path d="M 439.240736 368.078734 
L 439.240736 214.705258 
" clip-path="url(#pc13149eaf3)" style="fill: none; stroke: #b0b0b0; stroke-opacity: 0.25; stroke-width: 0.8; stroke-linecap: square"/>
     </g>
     <g id="line2d_52">
      <g>
       <use xlink:href="#mdb3947d37d" x="439.240736" y="368.078734" style="stroke: #000000; stroke-width: 0.8"/>
      </g>
     </g>
     <g id="text_28">
      <!-- 1.50 -->
      <g transform="translate(429.221205 381.916625) scale(0.09 -0.09)">
       <use xlink:href="#DejaVuSans-14"/>
       <use xlink:href="#DejaVuSans-11" transform="translate(63.625 0)"/>
       <use xlink:href="#DejaVuSans-18" transform="translate(95.40625 0)"/>
       <use xlink:href="#DejaVuSans-13" transform="translate(159.03125 0)"/>
      </g>
     </g>
    </g>
    <g id="xtick_16">
     <g id="line2d_53">
      <path d="M 500.203887 368.078734 
L 500.203887 214.705258 
" clip-path="url(#pc13149eaf3)" style="fill: none; stroke: #b0b0b0; stroke-opacity: 0.25; stroke-width: 0.8; stroke-linecap: square"/>
     </g>
     <g id="line2d_54">
      <g>
       <use xlink:href="#mdb3947d37d" x="500.203887" y="368.078734" style="stroke: #000000; stroke-width: 0.8"/>
      </g>
     </g>
     <g id="text_29">
      <!-- 1.75 -->
      <g transform="translate(490.184356 381.916625) scale(0.09 -0.09)">
       <use xlink:href="#DejaVuSans-14"/>
       <use xlink:href="#DejaVuSans-11" transform="translate(63.625 0)"/>
       <use xlink:href="#DejaVuSans-1a" transform="translate(95.40625 0)"/>
       <use xlink:href="#DejaVuSans-18" transform="translate(159.03125 0)"/>
      </g>
     </g>
    </g>
    <g id="text_30">
     <!-- Simulated time from first CSV sample (s) -->
     <g transform="translate(186.374552 394.917328) scale(0.09 -0.09)">
      <defs>
       <path id="DejaVuSans-36" d="M 3425 4513 
L 3425 3897 
Q 3066 4069 2747 4153 
Q 2428 4238 2131 4238 
Q 1616 4238 1336 4038 
Q 1056 3838 1056 3469 
Q 1056 3159 1242 3001 
Q 1428 2844 1947 2747 
L 2328 2669 
Q 3034 2534 3370 2195 
Q 3706 1856 3706 1288 
Q 3706 609 3251 259 
Q 2797 -91 1919 -91 
Q 1588 -91 1214 -16 
Q 841 59 441 206 
L 441 856 
Q 825 641 1194 531 
Q 1563 422 1919 422 
Q 2459 422 2753 634 
Q 3047 847 3047 1241 
Q 3047 1584 2836 1778 
Q 2625 1972 2144 2069 
L 1759 2144 
Q 1053 2284 737 2584 
Q 422 2884 422 3419 
Q 422 4038 858 4394 
Q 1294 4750 2059 4750 
Q 2388 4750 2728 4690 
Q 3069 4631 3425 4513 
z
" transform="scale(0.015625)"/>
       <path id="DejaVuSans-49" d="M 2375 4863 
L 2375 4384 
L 1825 4384 
Q 1516 4384 1395 4259 
Q 1275 4134 1275 3809 
L 1275 3500 
L 2222 3500 
L 2222 3053 
L 1275 3053 
L 1275 0 
L 697 0 
L 697 3053 
L 147 3053 
L 147 3500 
L 697 3500 
L 697 3744 
Q 697 4328 969 4595 
Q 1241 4863 1831 4863 
L 2375 4863 
z
" transform="scale(0.015625)"/>
       <path id="DejaVuSans-13af" d="M 3431 3500 
L 3431 0 
L 2853 0 
L 2853 3053 
L 1275 3053 
L 1275 0 
L 697 0 
L 697 3053 
L 147 3053 
L 147 3500 
L 697 3500 
L 697 3744 
Q 697 4316 967 4589 
Q 1238 4863 1797 4863 
L 2375 4863 
L 2375 4384 
L 1825 4384 
Q 1516 4384 1395 4259 
Q 1275 4134 1275 3809 
L 1275 3500 
L 3431 3500 
z
M 2853 4856 
L 3431 4856 
L 3431 4128 
L 2853 4128 
L 2853 4856 
z
" transform="scale(0.015625)"/>
       <path id="DejaVuSans-26" d="M 4122 4306 
L 4122 3641 
Q 3803 3938 3442 4084 
Q 3081 4231 2675 4231 
Q 1875 4231 1450 3742 
Q 1025 3253 1025 2328 
Q 1025 1406 1450 917 
Q 1875 428 2675 428 
Q 3081 428 3442 575 
Q 3803 722 4122 1019 
L 4122 359 
Q 3791 134 3420 21 
Q 3050 -91 2638 -91 
Q 1578 -91 968 557 
Q 359 1206 359 2328 
Q 359 3453 968 4101 
Q 1578 4750 2638 4750 
Q 3056 4750 3426 4639 
Q 3797 4528 4122 4306 
z
" transform="scale(0.015625)"/>
       <path id="DejaVuSans-39" d="M 1831 0 
L 50 4666 
L 709 4666 
L 2188 738 
L 3669 4666 
L 4325 4666 
L 2547 0 
L 1831 0 
z
" transform="scale(0.015625)"/>
      </defs>
      <use xlink:href="#DejaVuSans-36"/>
      <use xlink:href="#DejaVuSans-4c" transform="translate(63.484375 0)"/>
      <use xlink:href="#DejaVuSans-50" transform="translate(91.265625 0)"/>
      <use xlink:href="#DejaVuSans-58" transform="translate(188.671875 0)"/>
      <use xlink:href="#DejaVuSans-4f" transform="translate(252.046875 0)"/>
      <use xlink:href="#DejaVuSans-44" transform="translate(279.828125 0)"/>
      <use xlink:href="#DejaVuSans-57" transform="translate(341.109375 0)"/>
      <use xlink:href="#DejaVuSans-48" transform="translate(380.3125 0)"/>
      <use xlink:href="#DejaVuSans-47" transform="translate(441.84375 0)"/>
      <use xlink:href="#DejaVuSans-3" transform="translate(505.328125 0)"/>
      <use xlink:href="#DejaVuSans-57" transform="translate(537.109375 0)"/>
      <use xlink:href="#DejaVuSans-4c" transform="translate(576.3125 0)"/>
      <use xlink:href="#DejaVuSans-50" transform="translate(604.09375 0)"/>
      <use xlink:href="#DejaVuSans-48" transform="translate(701.5 0)"/>
      <use xlink:href="#DejaVuSans-3" transform="translate(763.03125 0)"/>
      <use xlink:href="#DejaVuSans-49" transform="translate(794.8125 0)"/>
      <use xlink:href="#DejaVuSans-55" transform="translate(830.015625 0)"/>
      <use xlink:href="#DejaVuSans-52" transform="translate(868.921875 0)"/>
      <use xlink:href="#DejaVuSans-50" transform="translate(930.109375 0)"/>
      <use xlink:href="#DejaVuSans-3" transform="translate(1027.515625 0)"/>
      <use xlink:href="#DejaVuSans-13af" transform="translate(1059.296875 0)"/>
      <use xlink:href="#DejaVuSans-55" transform="translate(1122.28125 0)"/>
      <use xlink:href="#DejaVuSans-56" transform="translate(1163.390625 0)"/>
      <use xlink:href="#DejaVuSans-57" transform="translate(1215.484375 0)"/>
      <use xlink:href="#DejaVuSans-3" transform="translate(1254.6875 0)"/>
      <use xlink:href="#DejaVuSans-26" transform="translate(1286.46875 0)"/>
      <use xlink:href="#DejaVuSans-36" transform="translate(1356.296875 0)"/>
      <use xlink:href="#DejaVuSans-39" transform="translate(1419.78125 0)"/>
      <use xlink:href="#DejaVuSans-3" transform="translate(1488.1875 0)"/>
      <use xlink:href="#DejaVuSans-56" transform="translate(1519.96875 0)"/>
      <use xlink:href="#DejaVuSans-44" transform="translate(1572.0625 0)"/>
      <use xlink:href="#DejaVuSans-50" transform="translate(1633.34375 0)"/>
      <use xlink:href="#DejaVuSans-53" transform="translate(1730.75 0)"/>
      <use xlink:href="#DejaVuSans-4f" transform="translate(1794.234375 0)"/>
      <use xlink:href="#DejaVuSans-48" transform="translate(1822.015625 0)"/>
      <use xlink:href="#DejaVuSans-3" transform="translate(1883.546875 0)"/>
      <use xlink:href="#DejaVuSans-b" transform="translate(1915.328125 0)"/>
      <use xlink:href="#DejaVuSans-56" transform="translate(1954.34375 0)"/>
      <use xlink:href="#DejaVuSans-c" transform="translate(2006.4375 0)"/>
     </g>
    </g>
   </g>
   <g id="matplotlib.axis_4">
    <g id="ytick_7">
     <g id="line2d_55">
      <path d="M 52.966016 353.726079 
L 503.873869 353.726079 
" clip-path="url(#pc13149eaf3)" style="fill: none; stroke: #b0b0b0; stroke-opacity: 0.25; stroke-width: 0.8; stroke-linecap: square"/>
     </g>
     <g id="line2d_56">
      <g>
       <use xlink:href="#mc66d65cefd" x="52.966016" y="353.726079" style="stroke: #000000; stroke-width: 0.8"/>
      </g>
     </g>
     <g id="text_31">
      <!-- 85.70 -->
      <g transform="translate(20.200703 357.145024) scale(0.09 -0.09)">
       <defs>
        <path id="DejaVuSans-1b" d="M 2034 2216 
Q 1584 2216 1326 1975 
Q 1069 1734 1069 1313 
Q 1069 891 1326 650 
Q 1584 409 2034 409 
Q 2484 409 2743 651 
Q 3003 894 3003 1313 
Q 3003 1734 2745 1975 
Q 2488 2216 2034 2216 
z
M 1403 2484 
Q 997 2584 770 2862 
Q 544 3141 544 3541 
Q 544 4100 942 4425 
Q 1341 4750 2034 4750 
Q 2731 4750 3128 4425 
Q 3525 4100 3525 3541 
Q 3525 3141 3298 2862 
Q 3072 2584 2669 2484 
Q 3125 2378 3379 2068 
Q 3634 1759 3634 1313 
Q 3634 634 3220 271 
Q 2806 -91 2034 -91 
Q 1263 -91 848 271 
Q 434 634 434 1313 
Q 434 1759 690 2068 
Q 947 2378 1403 2484 
z
M 1172 3481 
Q 1172 3119 1398 2916 
Q 1625 2713 2034 2713 
Q 2441 2713 2670 2916 
Q 2900 3119 2900 3481 
Q 2900 3844 2670 4047 
Q 2441 4250 2034 4250 
Q 1625 4250 1398 4047 
Q 1172 3844 1172 3481 
z
" transform="scale(0.015625)"/>
       </defs>
       <use xlink:href="#DejaVuSans-1b"/>
       <use xlink:href="#DejaVuSans-18" transform="translate(63.625 0)"/>
       <use xlink:href="#DejaVuSans-11" transform="translate(127.25 0)"/>
       <use xlink:href="#DejaVuSans-1a" transform="translate(159.03125 0)"/>
       <use xlink:href="#DejaVuSans-13" transform="translate(222.65625 0)"/>
      </g>
     </g>
    </g>
    <g id="ytick_8">
     <g id="line2d_57">
      <path d="M 52.966016 333.448238 
L 503.873869 333.448238 
" clip-path="url(#pc13149eaf3)" style="fill: none; stroke: #b0b0b0; stroke-opacity: 0.25; stroke-width: 0.8; stroke-linecap: square"/>
     </g>
     <g id="line2d_58">
      <g>
       <use xlink:href="#mc66d65cefd" x="52.966016" y="333.448238" style="stroke: #000000; stroke-width: 0.8"/>
      </g>
     </g>
     <g id="text_32">
      <!-- 85.75 -->
      <g transform="translate(20.200703 336.867183) scale(0.09 -0.09)">
       <use xlink:href="#DejaVuSans-1b"/>
       <use xlink:href="#DejaVuSans-18" transform="translate(63.625 0)"/>
       <use xlink:href="#DejaVuSans-11" transform="translate(127.25 0)"/>
       <use xlink:href="#DejaVuSans-1a" transform="translate(159.03125 0)"/>
       <use xlink:href="#DejaVuSans-18" transform="translate(222.65625 0)"/>
      </g>
     </g>
    </g>
    <g id="ytick_9">
     <g id="line2d_59">
      <path d="M 52.966016 313.170397 
L 503.873869 313.170397 
" clip-path="url(#pc13149eaf3)" style="fill: none; stroke: #b0b0b0; stroke-opacity: 0.25; stroke-width: 0.8; stroke-linecap: square"/>
     </g>
     <g id="line2d_60">
      <g>
       <use xlink:href="#mc66d65cefd" x="52.966016" y="313.170397" style="stroke: #000000; stroke-width: 0.8"/>
      </g>
     </g>
     <g id="text_33">
      <!-- 85.80 -->
      <g transform="translate(20.200703 316.589342) scale(0.09 -0.09)">
       <use xlink:href="#DejaVuSans-1b"/>
       <use xlink:href="#DejaVuSans-18" transform="translate(63.625 0)"/>
       <use xlink:href="#DejaVuSans-11" transform="translate(127.25 0)"/>
       <use xlink:href="#DejaVuSans-1b" transform="translate(159.03125 0)"/>
       <use xlink:href="#DejaVuSans-13" transform="translate(222.65625 0)"/>
      </g>
     </g>
    </g>
    <g id="ytick_10">
     <g id="line2d_61">
      <path d="M 52.966016 292.892556 
L 503.873869 292.892556 
" clip-path="url(#pc13149eaf3)" style="fill: none; stroke: #b0b0b0; stroke-opacity: 0.25; stroke-width: 0.8; stroke-linecap: square"/>
     </g>
     <g id="line2d_62">
      <g>
       <use xlink:href="#mc66d65cefd" x="52.966016" y="292.892556" style="stroke: #000000; stroke-width: 0.8"/>
      </g>
     </g>
     <g id="text_34">
      <!-- 85.85 -->
      <g transform="translate(20.200703 296.311502) scale(0.09 -0.09)">
       <use xlink:href="#DejaVuSans-1b"/>
       <use xlink:href="#DejaVuSans-18" transform="translate(63.625 0)"/>
       <use xlink:href="#DejaVuSans-11" transform="translate(127.25 0)"/>
       <use xlink:href="#DejaVuSans-1b" transform="translate(159.03125 0)"/>
       <use xlink:href="#DejaVuSans-18" transform="translate(222.65625 0)"/>
      </g>
     </g>
    </g>
    <g id="ytick_11">
     <g id="line2d_63">
      <path d="M 52.966016 272.614716 
L 503.873869 272.614716 
" clip-path="url(#pc13149eaf3)" style="fill: none; stroke: #b0b0b0; stroke-opacity: 0.25; stroke-width: 0.8; stroke-linecap: square"/>
     </g>
     <g id="line2d_64">
      <g>
       <use xlink:href="#mc66d65cefd" x="52.966016" y="272.614716" style="stroke: #000000; stroke-width: 0.8"/>
      </g>
     </g>
     <g id="text_35">
      <!-- 85.90 -->
      <g transform="translate(20.200703 276.033661) scale(0.09 -0.09)">
       <defs>
        <path id="DejaVuSans-1c" d="M 703 97 
L 703 672 
Q 941 559 1184 500 
Q 1428 441 1663 441 
Q 2288 441 2617 861 
Q 2947 1281 2994 2138 
Q 2813 1869 2534 1725 
Q 2256 1581 1919 1581 
Q 1219 1581 811 2004 
Q 403 2428 403 3163 
Q 403 3881 828 4315 
Q 1253 4750 1959 4750 
Q 2769 4750 3195 4129 
Q 3622 3509 3622 2328 
Q 3622 1225 3098 567 
Q 2575 -91 1691 -91 
Q 1453 -91 1209 -44 
Q 966 3 703 97 
z
M 1959 2075 
Q 2384 2075 2632 2365 
Q 2881 2656 2881 3163 
Q 2881 3666 2632 3958 
Q 2384 4250 1959 4250 
Q 1534 4250 1286 3958 
Q 1038 3666 1038 3163 
Q 1038 2656 1286 2365 
Q 1534 2075 1959 2075 
z
" transform="scale(0.015625)"/>
       </defs>
       <use xlink:href="#DejaVuSans-1b"/>
       <use xlink:href="#DejaVuSans-18" transform="translate(63.625 0)"/>
       <use xlink:href="#DejaVuSans-11" transform="translate(127.25 0)"/>
       <use xlink:href="#DejaVuSans-1c" transform="translate(159.03125 0)"/>
       <use xlink:href="#DejaVuSans-13" transform="translate(222.65625 0)"/>
      </g>
     </g>
    </g>
    <g id="ytick_12">
     <g id="line2d_65">
      <path d="M 52.966016 252.336875 
L 503.873869 252.336875 
" clip-path="url(#pc13149eaf3)" style="fill: none; stroke: #b0b0b0; stroke-opacity: 0.25; stroke-width: 0.8; stroke-linecap: square"/>
     </g>
     <g id="line2d_66">
      <g>
       <use xlink:href="#mc66d65cefd" x="52.966016" y="252.336875" style="stroke: #000000; stroke-width: 0.8"/>
      </g>
     </g>
     <g id="text_36">
      <!-- 85.95 -->
      <g transform="translate(20.200703 255.75582) scale(0.09 -0.09)">
       <use xlink:href="#DejaVuSans-1b"/>
       <use xlink:href="#DejaVuSans-18" transform="translate(63.625 0)"/>
       <use xlink:href="#DejaVuSans-11" transform="translate(127.25 0)"/>
       <use xlink:href="#DejaVuSans-1c" transform="translate(159.03125 0)"/>
       <use xlink:href="#DejaVuSans-18" transform="translate(222.65625 0)"/>
      </g>
     </g>
    </g>
    <g id="ytick_13">
     <g id="line2d_67">
      <path d="M 52.966016 232.059034 
L 503.873869 232.059034 
" clip-path="url(#pc13149eaf3)" style="fill: none; stroke: #b0b0b0; stroke-opacity: 0.25; stroke-width: 0.8; stroke-linecap: square"/>
     </g>
     <g id="line2d_68">
      <g>
       <use xlink:href="#mc66d65cefd" x="52.966016" y="232.059034" style="stroke: #000000; stroke-width: 0.8"/>
      </g>
     </g>
     <g id="text_37">
      <!-- 86.00 -->
      <g transform="translate(20.200703 235.477979) scale(0.09 -0.09)">
       <use xlink:href="#DejaVuSans-1b"/>
       <use xlink:href="#DejaVuSans-19" transform="translate(63.625 0)"/>
       <use xlink:href="#DejaVuSans-11" transform="translate(127.25 0)"/>
       <use xlink:href="#DejaVuSans-13" transform="translate(159.03125 0)"/>
       <use xlink:href="#DejaVuSans-13" transform="translate(222.65625 0)"/>
      </g>
     </g>
    </g>
    <g id="text_38">
     <!-- Elevation (degrees) -->
     <g transform="translate(14.038594 335.352074) rotate(-90) scale(0.09 -0.09)">
      <defs>
       <path id="DejaVuSans-28" d="M 628 4666 
L 3578 4666 
L 3578 4134 
L 1259 4134 
L 1259 2753 
L 3481 2753 
L 3481 2222 
L 1259 2222 
L 1259 531 
L 3634 531 
L 3634 0 
L 628 0 
L 628 4666 
z
" transform="scale(0.015625)"/>
      </defs>
      <use xlink:href="#DejaVuSans-28"/>
      <use xlink:href="#DejaVuSans-4f" transform="translate(63.1875 0)"/>
      <use xlink:href="#DejaVuSans-48" transform="translate(90.96875 0)"/>
      <use xlink:href="#DejaVuSans-59" transform="translate(152.5 0)"/>
      <use xlink:href="#DejaVuSans-44" transform="translate(211.6875 0)"/>
      <use xlink:href="#DejaVuSans-57" transform="translate(272.96875 0)"/>
      <use xlink:href="#DejaVuSans-4c" transform="translate(312.171875 0)"/>
      <use xlink:href="#DejaVuSans-52" transform="translate(339.953125 0)"/>
      <use xlink:href="#DejaVuSans-51" transform="translate(401.140625 0)"/>
      <use xlink:href="#DejaVuSans-3" transform="translate(464.515625 0)"/>
      <use xlink:href="#DejaVuSans-b" transform="translate(496.296875 0)"/>
      <use xlink:href="#DejaVuSans-47" transform="translate(535.3125 0)"/>
      <use xlink:href="#DejaVuSans-48" transform="translate(598.796875 0)"/>
      <use xlink:href="#DejaVuSans-4a" transform="translate(660.328125 0)"/>
      <use xlink:href="#DejaVuSans-55" transform="translate(723.8125 0)"/>
      <use xlink:href="#DejaVuSans-48" transform="translate(762.71875 0)"/>
      <use xlink:href="#DejaVuSans-48" transform="translate(824.25 0)"/>
      <use xlink:href="#DejaVuSans-56" transform="translate(885.78125 0)"/>
      <use xlink:href="#DejaVuSans-c" transform="translate(937.875 0)"/>
     </g>
    </g>
   </g>
   <g id="line2d_69">
    <path d="M 73.461827 361.107213 
L 74.68109 360.620545 
L 76.388058 359.890542 
L 77.607321 359.403874 
L 79.070437 358.795539 
L 80.2897 358.308871 
L 81.996668 357.578868 
L 83.459784 357.011089 
L 85.166752 356.281087 
L 86.629868 355.713307 
L 88.336836 354.983305 
L 89.799952 354.415525 
L 91.50692 353.685523 
L 92.970036 353.117743 
L 94.433151 352.509408 
L 95.652414 352.02274 
L 97.11553 351.414405 
L 98.578646 350.846625 
L 100.041761 350.23829 
L 101.261024 349.751622 
L 102.72414 349.143287 
L 104.187255 348.575507 
L 105.650371 347.967172 
L 107.113487 347.399392 
L 108.576602 346.791057 
L 110.039718 346.223278 
L 111.502834 345.614942 
L 112.965949 345.047163 
L 114.429065 344.438828 
L 115.892181 343.871048 
L 117.355296 343.262713 
L 119.062264 342.613822 
L 120.52538 342.005487 
L 122.232348 341.356596 
L 123.695464 340.748261 
L 125.402432 340.09937 
L 126.865548 339.491034 
L 128.572516 338.842144 
L 130.035632 338.233808 
L 131.7426 337.584917 
L 132.961863 337.098249 
L 134.424979 336.53047 
L 135.644242 336.043802 
L 137.107357 335.476022 
L 138.32662 334.989354 
L 139.789736 334.421574 
L 141.008999 333.934906 
L 142.715967 333.286015 
L 143.93523 332.799347 
L 145.642198 332.150456 
L 147.105314 331.542121 
L 149.056135 330.812119 
L 150.275398 330.32545 
L 151.982366 329.676559 
L 153.201629 329.189891 
L 155.15245 328.459889 
L 156.371713 327.973221 
L 158.078681 327.32433 
L 159.297944 326.837662 
L 161.248765 326.10766 
L 162.468028 325.620991 
L 164.418849 324.890989 
L 165.638112 324.404321 
L 167.832786 323.593207 
L 169.052049 323.106539 
L 171.002869 322.376537 
L 172.222132 321.889869 
L 174.660659 320.997644 
L 175.879922 320.510975 
L 178.074595 319.699862 
L 179.293858 319.213194 
L 181.732384 318.320969 
L 182.951647 317.8343 
L 185.390173 316.942075 
L 186.609436 316.455407 
L 189.291815 315.482071 
L 190.511078 314.995403 
L 193.193457 314.022066 
L 194.41272 313.535398 
L 197.338951 312.480951 
L 198.558214 311.994282 
L 201.728298 310.858723 
L 202.947561 310.372055 
L 206.117645 309.236496 
L 207.093055 308.871495 
L 209.531581 307.97927 
L 210.506992 307.614269 
L 213.18937 306.640932 
L 214.164781 306.275931 
L 217.091012 305.221484 
L 218.066422 304.856482 
L 220.992654 303.802035 
L 221.968064 303.437034 
L 225.138148 302.301474 
L 226.113558 301.936473 
L 229.283642 300.800914 
L 230.259053 300.435913 
L 233.916842 299.138131 
L 234.892252 298.77313 
L 239.037746 297.313126 
L 240.013157 296.948124 
L 244.402504 295.407009 
L 245.377914 295.042007 
L 250.254966 293.338669 
L 251.230377 292.973668 
L 256.838987 291.026995 
L 257.814397 290.661994 
L 264.64227 288.309764 
L 265.61768 287.944763 
L 274.396374 284.943643 
L 275.371785 284.578642 
L 290.490646 279.468626 
L 291.466057 279.103625 
L 326.580832 267.5047 
L 327.31239 267.301921 
L 337.310347 264.057467 
L 338.041904 263.854688 
L 345.601335 261.421347 
L 346.332893 261.218569 
L 352.429208 259.271896 
L 353.160766 259.069118 
L 358.281671 257.446891 
L 359.013228 257.244112 
L 363.646428 255.784108 
L 364.377986 255.581329 
L 368.767333 254.202436 
L 369.498891 253.999658 
L 373.400532 252.782987 
L 374.13209 252.580209 
L 377.546027 251.525761 
L 378.277584 251.322983 
L 381.691521 250.268535 
L 382.423079 250.065757 
L 385.593163 249.09242 
L 386.32472 248.889642 
L 389.250952 247.997417 
L 389.982509 247.794638 
L 392.664888 246.983525 
L 393.396446 246.780746 
L 396.078825 245.969633 
L 396.810382 245.766854 
L 399.492761 244.955741 
L 400.224319 244.752962 
L 402.662845 244.02296 
L 403.394403 243.820182 
L 405.589076 243.171291 
L 406.320634 242.968512 
L 408.75916 242.23851 
L 409.490718 242.035732 
L 411.441539 241.467952 
L 412.173097 241.265174 
L 414.36777 240.616283 
L 415.099328 240.413504 
L 417.050149 239.845725 
L 417.781706 239.642946 
L 419.732527 239.075167 
L 420.464085 238.872388 
L 422.414906 238.304609 
L 423.390316 238.061275 
L 425.828842 237.331273 
L 426.804253 237.087938 
L 428.998926 236.439048 
L 429.730484 236.236269 
L 431.437452 235.749601 
L 432.16901 235.546823 
L 433.875978 235.060154 
L 434.851389 234.81682 
L 437.046062 234.167929 
L 438.021473 233.924595 
L 439.972294 233.356816 
L 440.947704 233.113482 
L 442.898525 232.545702 
L 443.873935 232.302368 
L 445.824756 231.734589 
L 446.800167 231.491254 
L 448.750987 230.923475 
L 449.726398 230.680141 
L 451.433366 230.193473 
L 452.408776 229.950139 
L 454.115745 229.46347 
L 455.091155 229.220136 
L 456.798123 228.733468 
L 457.773534 228.490134 
L 459.480502 228.003466 
L 460.455912 227.760132 
L 462.162881 227.273464 
L 463.138291 227.030129 
L 464.601407 226.624573 
L 465.576817 226.381239 
L 467.039933 225.975682 
L 468.015343 225.732348 
L 469.478459 225.326791 
L 470.453869 225.083457 
L 471.916985 224.6779 
L 472.892395 224.434566 
L 474.355511 224.029009 
L 475.330921 223.785675 
L 476.794037 223.380118 
L 477.769447 223.136784 
L 478.988711 222.812339 
L 479.964121 222.569004 
L 481.427237 222.163448 
L 482.6465 221.879558 
L 483.378057 221.676779 
L 483.378057 221.676779 
" clip-path="url(#pc13149eaf3)" style="fill: none; stroke-dasharray: 1.5,2.475; stroke-dashoffset: 0; stroke: #000000; stroke-width: 1.5"/>
   </g>
   <g id="line2d_70">
    <path d="M 73.461827 361.107213 
L 74.68109 360.620545 
L 76.388058 359.890542 
L 77.607321 359.403874 
L 79.070437 358.795539 
L 80.2897 358.308871 
L 81.996668 357.578868 
L 83.459784 357.011089 
L 85.166752 356.281087 
L 86.629868 355.713307 
L 88.336836 354.983305 
L 89.799952 354.415525 
L 91.50692 353.685523 
L 92.970036 353.117743 
L 94.433151 352.509408 
L 95.652414 352.02274 
L 97.11553 351.414405 
L 98.578646 350.846625 
L 100.041761 350.23829 
L 101.261024 349.751622 
L 102.72414 349.143287 
L 104.187255 348.575507 
L 105.650371 347.967172 
L 107.113487 347.399392 
L 108.576602 346.791057 
L 110.039718 346.223278 
L 111.502834 345.614942 
L 112.965949 345.047163 
L 114.429065 344.438828 
L 115.892181 343.871048 
L 117.355296 343.262713 
L 119.062264 342.613822 
L 120.52538 342.005487 
L 122.232348 341.356596 
L 123.695464 340.748261 
L 125.402432 340.09937 
L 126.865548 339.491034 
L 128.572516 338.842144 
L 130.035632 338.233808 
L 131.7426 337.584917 
L 132.961863 337.098249 
L 134.424979 336.53047 
L 135.644242 336.043802 
L 137.107357 335.476022 
L 138.32662 334.989354 
L 139.789736 334.421574 
L 141.008999 333.934906 
L 142.715967 333.286015 
L 143.93523 332.799347 
L 145.642198 332.150456 
L 147.105314 331.542121 
L 149.056135 330.812119 
L 150.275398 330.32545 
L 151.982366 329.676559 
L 153.201629 329.189891 
L 155.15245 328.459889 
L 156.371713 327.973221 
L 158.078681 327.32433 
L 159.297944 326.837662 
L 161.248765 326.10766 
L 162.468028 325.620991 
L 164.418849 324.890989 
L 165.638112 324.404321 
L 167.832786 323.593207 
L 169.052049 323.106539 
L 171.002869 322.376537 
L 172.222132 321.889869 
L 174.660659 320.997644 
L 175.879922 320.510975 
L 178.074595 319.699862 
L 179.293858 319.213194 
L 181.732384 318.320969 
L 182.951647 317.8343 
L 185.390173 316.942075 
L 186.609436 316.455407 
L 189.291815 315.482071 
L 190.511078 314.995403 
L 193.193457 314.022066 
L 194.41272 313.535398 
L 197.338951 312.480951 
L 198.558214 311.994282 
L 201.728298 310.858723 
L 202.947561 310.372055 
L 206.117645 309.236496 
L 207.093055 308.871495 
L 209.531581 307.97927 
L 210.506992 307.614269 
L 213.18937 306.640932 
L 214.164781 306.275931 
L 217.091012 305.221484 
L 218.066422 304.856482 
L 220.992654 303.802035 
L 221.968064 303.437034 
L 225.138148 302.301474 
L 226.113558 301.936473 
L 229.283642 300.800914 
L 230.259053 300.435913 
L 233.916842 299.138131 
L 234.892252 298.77313 
L 239.037746 297.313126 
L 240.013157 296.948124 
L 244.402504 295.407009 
L 245.377914 295.042007 
L 250.254966 293.338669 
L 251.230377 292.973668 
L 256.838987 291.026995 
L 257.814397 290.661994 
L 264.64227 288.309764 
L 265.61768 287.944763 
L 274.396374 284.943643 
L 275.371785 284.578642 
L 290.490646 279.468626 
L 291.466057 279.103625 
L 326.580832 267.5047 
L 327.31239 267.301921 
L 337.310347 264.057467 
L 338.041904 263.854688 
L 345.601335 261.421347 
L 346.332893 261.218569 
L 352.429208 259.271896 
L 353.160766 259.069118 
L 358.281671 257.446891 
L 359.013228 257.244112 
L 363.646428 255.784108 
L 364.377986 255.581329 
L 368.767333 254.202436 
L 369.498891 253.999658 
L 373.400532 252.782987 
L 374.13209 252.580209 
L 377.546027 251.525761 
L 378.277584 251.322983 
L 381.691521 250.268535 
L 382.423079 250.065757 
L 385.593163 249.09242 
L 386.32472 248.889642 
L 389.250952 247.997417 
L 389.982509 247.794638 
L 392.664888 246.983525 
L 393.396446 246.780746 
L 396.078825 245.969633 
L 396.810382 245.766854 
L 399.492761 244.955741 
L 400.224319 244.752962 
L 402.662845 244.02296 
L 403.394403 243.820182 
L 405.589076 243.171291 
L 406.320634 242.968512 
L 408.75916 242.23851 
L 409.490718 242.035732 
L 411.441539 241.467952 
L 412.173097 241.265174 
L 414.36777 240.616283 
L 415.099328 240.413504 
L 417.050149 239.845725 
L 417.781706 239.642946 
L 419.732527 239.075167 
L 420.464085 238.872388 
L 422.414906 238.304609 
L 423.390316 238.061275 
L 425.828842 237.331273 
L 426.804253 237.087938 
L 428.998926 236.439048 
L 429.730484 236.236269 
L 431.437452 235.749601 
L 432.16901 235.546823 
L 433.875978 235.060154 
L 434.851389 234.81682 
L 437.046062 234.167929 
L 438.021473 233.924595 
L 439.972294 233.356816 
L 440.947704 233.113482 
L 442.898525 232.545702 
L 443.873935 232.302368 
L 445.824756 231.734589 
L 446.800167 231.491254 
L 448.750987 230.923475 
L 449.726398 230.680141 
L 451.433366 230.193473 
L 452.408776 229.950139 
L 454.115745 229.46347 
L 455.091155 229.220136 
L 456.798123 228.733468 
L 457.773534 228.490134 
L 459.480502 228.003466 
L 460.455912 227.760132 
L 462.162881 227.273464 
L 463.138291 227.030129 
L 464.601407 226.624573 
L 465.576817 226.381239 
L 467.039933 225.975682 
L 468.015343 225.732348 
L 469.478459 225.326791 
L 470.453869 225.083457 
L 471.916985 224.6779 
L 472.892395 224.434566 
L 474.355511 224.029009 
L 475.330921 223.785675 
L 476.794037 223.380118 
L 477.769447 223.136784 
L 478.988711 222.812339 
L 479.964121 222.569004 
L 481.427237 222.163448 
L 482.6465 221.879558 
L 483.378057 221.676779 
L 483.378057 221.676779 
" clip-path="url(#pc13149eaf3)" style="fill: none; stroke: #000000; stroke-width: 1.5; stroke-linecap: square"/>
   </g>
   <g id="line2d_71">
    <path d="M 73.461827 361.107213 
L 74.68109 360.620545 
L 76.388058 359.890542 
L 77.607321 359.403874 
L 79.070437 358.795539 
L 80.2897 358.308871 
L 81.996668 357.578868 
L 83.459784 357.011089 
L 85.166752 356.281087 
L 86.629868 355.713307 
L 88.336836 354.983305 
L 89.799952 354.415525 
L 91.50692 353.685523 
L 92.970036 353.117743 
L 94.433151 352.509408 
L 95.652414 352.02274 
L 97.11553 351.414405 
L 98.578646 350.846625 
L 100.041761 350.23829 
L 101.261024 349.751622 
L 102.72414 349.143287 
L 104.187255 348.575507 
L 105.650371 347.967172 
L 107.113487 347.399392 
L 108.576602 346.791057 
L 110.039718 346.223278 
L 111.502834 345.614942 
L 112.965949 345.047163 
L 114.429065 344.438828 
L 115.892181 343.871048 
L 117.355296 343.262713 
L 119.062264 342.613822 
L 120.52538 342.005487 
L 122.232348 341.356596 
L 123.695464 340.748261 
L 125.402432 340.09937 
L 126.865548 339.491034 
L 128.572516 338.842144 
L 130.035632 338.233808 
L 131.7426 337.584917 
L 132.961863 337.098249 
L 134.424979 336.53047 
L 135.644242 336.043802 
L 137.107357 335.476022 
L 138.32662 334.989354 
L 139.789736 334.421574 
L 141.008999 333.934906 
L 142.715967 333.286015 
L 143.93523 332.799347 
L 145.642198 332.150456 
L 147.105314 331.542121 
L 149.056135 330.812119 
L 150.275398 330.32545 
L 151.982366 329.676559 
L 153.201629 329.189891 
L 155.15245 328.459889 
L 156.371713 327.973221 
L 158.078681 327.32433 
L 159.297944 326.837662 
L 161.248765 326.10766 
L 162.468028 325.620991 
L 164.418849 324.890989 
L 165.638112 324.404321 
L 167.832786 323.593207 
L 169.052049 323.106539 
L 171.002869 322.376537 
L 172.222132 321.889869 
L 174.660659 320.997644 
L 175.879922 320.510975 
L 178.074595 319.699862 
L 179.293858 319.213194 
L 181.732384 318.320969 
L 182.951647 317.8343 
L 185.390173 316.942075 
L 186.609436 316.455407 
L 189.291815 315.482071 
L 190.511078 314.995403 
L 193.193457 314.022066 
L 194.41272 313.535398 
L 197.338951 312.480951 
L 198.558214 311.994282 
L 201.728298 310.858723 
L 202.947561 310.372055 
L 206.117645 309.236496 
L 207.093055 308.871495 
L 209.531581 307.97927 
L 210.506992 307.614269 
L 213.18937 306.640932 
L 214.164781 306.275931 
L 217.091012 305.221484 
L 218.066422 304.856482 
L 220.992654 303.802035 
L 221.968064 303.437034 
L 225.138148 302.301474 
L 226.113558 301.936473 
L 229.283642 300.800914 
L 230.259053 300.435913 
L 233.916842 299.138131 
L 234.892252 298.77313 
L 239.037746 297.313126 
L 240.013157 296.948124 
L 244.402504 295.407009 
L 245.377914 295.042007 
L 250.254966 293.338669 
L 251.230377 292.973668 
L 256.838987 291.026995 
L 257.814397 290.661994 
L 264.64227 288.309764 
L 265.61768 287.944763 
L 274.396374 284.943643 
L 275.371785 284.578642 
L 290.490646 279.468626 
L 291.466057 279.103625 
L 326.580832 267.5047 
L 327.31239 267.301921 
L 337.310347 264.057467 
L 338.041904 263.854688 
L 345.601335 261.421347 
L 346.332893 261.218569 
L 352.429208 259.271896 
L 353.160766 259.069118 
L 358.281671 257.446891 
L 359.013228 257.244112 
L 363.646428 255.784108 
L 364.377986 255.581329 
L 368.767333 254.202436 
L 369.498891 253.999658 
L 373.400532 252.782987 
L 374.13209 252.580209 
L 377.546027 251.525761 
L 378.277584 251.322983 
L 381.691521 250.268535 
L 382.423079 250.065757 
L 385.593163 249.09242 
L 386.32472 248.889642 
L 389.250952 247.997417 
L 389.982509 247.794638 
L 392.664888 246.983525 
L 393.396446 246.780746 
L 396.078825 245.969633 
L 396.810382 245.766854 
L 399.492761 244.955741 
L 400.224319 244.752962 
L 402.662845 244.02296 
L 403.394403 243.820182 
L 405.589076 243.171291 
L 406.320634 242.968512 
L 408.75916 242.23851 
L 409.490718 242.035732 
L 411.441539 241.467952 
L 412.173097 241.265174 
L 414.36777 240.616283 
L 415.099328 240.413504 
L 417.050149 239.845725 
L 417.781706 239.642946 
L 419.732527 239.075167 
L 420.464085 238.872388 
L 422.414906 238.304609 
L 423.390316 238.061275 
L 425.828842 237.331273 
L 426.804253 237.087938 
L 428.998926 236.439048 
L 429.730484 236.236269 
L 431.437452 235.749601 
L 432.16901 235.546823 
L 433.875978 235.060154 
L 434.851389 234.81682 
L 437.046062 234.167929 
L 438.021473 233.924595 
L 439.972294 233.356816 
L 440.947704 233.113482 
L 442.898525 232.545702 
L 443.873935 232.302368 
L 445.824756 231.734589 
L 446.800167 231.491254 
L 448.750987 230.923475 
L 449.726398 230.680141 
L 451.433366 230.193473 
L 452.408776 229.950139 
L 454.115745 229.46347 
L 455.091155 229.220136 
L 456.798123 228.733468 
L 457.773534 228.490134 
L 459.480502 228.003466 
L 460.455912 227.760132 
L 462.162881 227.273464 
L 463.138291 227.030129 
L 464.601407 226.624573 
L 465.576817 226.381239 
L 467.039933 225.975682 
L 468.015343 225.732348 
L 469.478459 225.326791 
L 470.453869 225.083457 
L 471.916985 224.6779 
L 472.892395 224.434566 
L 474.355511 224.029009 
L 475.330921 223.785675 
L 476.794037 223.380118 
L 477.769447 223.136784 
L 478.988711 222.812339 
L 479.964121 222.569004 
L 481.427237 222.163448 
L 482.6465 221.879558 
L 483.378057 221.676779 
L 483.378057 221.676779 
" clip-path="url(#pc13149eaf3)" style="fill: none; stroke-dasharray: 5.55,2.4; stroke-dashoffset: 0; stroke: #000000; stroke-width: 1.5"/>
   </g>
   <g id="line2d_72">
    <path d="M 73.461827 361.107213 
L 74.68109 360.620545 
L 76.388058 359.890542 
L 77.607321 359.403874 
L 79.070437 358.795539 
L 80.2897 358.308871 
L 81.996668 357.578868 
L 83.459784 357.011089 
L 85.166752 356.281087 
L 86.629868 355.713307 
L 88.336836 354.983305 
L 89.799952 354.415525 
L 91.50692 353.685523 
L 92.970036 353.117743 
L 94.433151 352.509408 
L 95.652414 352.02274 
L 97.11553 351.414405 
L 98.578646 350.846625 
L 100.041761 350.23829 
L 101.261024 349.751622 
L 102.72414 349.143287 
L 104.187255 348.575507 
L 105.650371 347.967172 
L 107.113487 347.399392 
L 108.576602 346.791057 
L 110.039718 346.223278 
L 111.502834 345.614942 
L 112.965949 345.047163 
L 114.429065 344.438828 
L 115.892181 343.871048 
L 117.355296 343.262713 
L 119.062264 342.613822 
L 120.52538 342.005487 
L 122.232348 341.356596 
L 123.695464 340.748261 
L 125.402432 340.09937 
L 126.865548 339.491034 
L 128.572516 338.842144 
L 130.035632 338.233808 
L 131.7426 337.584917 
L 132.961863 337.098249 
L 134.424979 336.53047 
L 135.644242 336.043802 
L 137.107357 335.476022 
L 138.32662 334.989354 
L 139.789736 334.421574 
L 141.008999 333.934906 
L 142.715967 333.286015 
L 143.93523 332.799347 
L 145.642198 332.150456 
L 147.105314 331.542121 
L 149.056135 330.812119 
L 150.275398 330.32545 
L 151.982366 329.676559 
L 153.201629 329.189891 
L 155.15245 328.459889 
L 156.371713 327.973221 
L 158.078681 327.32433 
L 159.297944 326.837662 
L 161.248765 326.10766 
L 162.468028 325.620991 
L 164.418849 324.890989 
L 165.638112 324.404321 
L 167.832786 323.593207 
L 169.052049 323.106539 
L 171.002869 322.376537 
L 172.222132 321.889869 
L 174.660659 320.997644 
L 175.879922 320.510975 
L 178.074595 319.699862 
L 179.293858 319.213194 
L 181.732384 318.320969 
L 182.951647 317.8343 
L 185.390173 316.942075 
L 186.609436 316.455407 
L 189.291815 315.482071 
L 190.511078 314.995403 
L 193.193457 314.022066 
L 194.41272 313.535398 
L 197.338951 312.480951 
L 198.558214 311.994282 
L 201.728298 310.858723 
L 202.947561 310.372055 
L 206.117645 309.236496 
L 207.093055 308.871495 
L 209.531581 307.97927 
L 210.506992 307.614269 
L 213.18937 306.640932 
L 214.164781 306.275931 
L 217.091012 305.221484 
L 218.066422 304.856482 
L 220.992654 303.802035 
L 221.968064 303.437034 
L 225.138148 302.301474 
L 226.113558 301.936473 
L 229.283642 300.800914 
L 230.259053 300.435913 
L 233.916842 299.138131 
L 234.892252 298.77313 
L 239.037746 297.313126 
L 240.013157 296.948124 
L 244.402504 295.407009 
L 245.377914 295.042007 
L 250.254966 293.338669 
L 251.230377 292.973668 
L 256.838987 291.026995 
L 257.814397 290.661994 
L 264.64227 288.309764 
L 265.61768 287.944763 
L 274.396374 284.943643 
L 275.371785 284.578642 
L 290.490646 279.468626 
L 291.466057 279.103625 
L 326.580832 267.5047 
L 327.31239 267.301921 
L 337.310347 264.057467 
L 338.041904 263.854688 
L 345.601335 261.421347 
L 346.332893 261.218569 
L 352.429208 259.271896 
L 353.160766 259.069118 
L 358.281671 257.446891 
L 359.013228 257.244112 
L 363.646428 255.784108 
L 364.377986 255.581329 
L 368.767333 254.202436 
L 369.498891 253.999658 
L 373.400532 252.782987 
L 374.13209 252.580209 
L 377.546027 251.525761 
L 378.277584 251.322983 
L 381.691521 250.268535 
L 382.423079 250.065757 
L 385.593163 249.09242 
L 386.32472 248.889642 
L 389.250952 247.997417 
L 389.982509 247.794638 
L 392.664888 246.983525 
L 393.396446 246.780746 
L 396.078825 245.969633 
L 396.810382 245.766854 
L 399.492761 244.955741 
L 400.224319 244.752962 
L 402.662845 244.02296 
L 403.394403 243.820182 
L 405.589076 243.171291 
L 406.320634 242.968512 
L 408.75916 242.23851 
L 409.490718 242.035732 
L 411.441539 241.467952 
L 412.173097 241.265174 
L 414.36777 240.616283 
L 415.099328 240.413504 
L 417.050149 239.845725 
L 417.781706 239.642946 
L 419.732527 239.075167 
L 420.464085 238.872388 
L 422.414906 238.304609 
L 423.390316 238.061275 
L 425.828842 237.331273 
L 426.804253 237.087938 
L 428.998926 236.439048 
L 429.730484 236.236269 
L 431.437452 235.749601 
L 432.16901 235.546823 
L 433.875978 235.060154 
L 434.851389 234.81682 
L 437.046062 234.167929 
L 438.021473 233.924595 
L 439.972294 233.356816 
L 440.947704 233.113482 
L 442.898525 232.545702 
L 443.873935 232.302368 
L 445.824756 231.734589 
L 446.800167 231.491254 
L 448.750987 230.923475 
L 449.726398 230.680141 
L 451.433366 230.193473 
L 452.408776 229.950139 
L 454.115745 229.46347 
L 455.091155 229.220136 
L 456.798123 228.733468 
L 457.773534 228.490134 
L 459.480502 228.003466 
L 460.455912 227.760132 
L 462.162881 227.273464 
L 463.138291 227.030129 
L 464.601407 226.624573 
L 465.576817 226.381239 
L 467.039933 225.975682 
L 468.015343 225.732348 
L 469.478459 225.326791 
L 470.453869 225.083457 
L 471.916985 224.6779 
L 472.892395 224.434566 
L 474.355511 224.029009 
L 475.330921 223.785675 
L 476.794037 223.380118 
L 477.769447 223.136784 
L 478.988711 222.812339 
L 479.964121 222.569004 
L 481.427237 222.163448 
L 482.6465 221.879558 
L 483.378057 221.676779 
L 483.378057 221.676779 
" clip-path="url(#pc13149eaf3)" style="fill: none; stroke-dasharray: 9.6,2.4,1.5,2.4; stroke-dashoffset: 0; stroke: #000000; stroke-width: 1.5"/>
   </g>
   <g id="line2d_73">
    <path d="M 73.461827 361.107213 
L 74.68109 360.620545 
L 76.388058 359.890542 
L 77.607321 359.403874 
L 79.070437 358.795539 
L 80.2897 358.308871 
L 81.996668 357.578868 
L 83.459784 357.011089 
L 85.166752 356.281087 
L 86.629868 355.713307 
L 88.336836 354.983305 
L 89.799952 354.415525 
L 91.50692 353.685523 
L 92.970036 353.117743 
L 94.433151 352.509408 
L 95.652414 352.02274 
L 97.11553 351.414405 
L 98.578646 350.846625 
L 100.041761 350.23829 
L 101.261024 349.751622 
L 102.72414 349.143287 
L 104.187255 348.575507 
L 105.650371 347.967172 
L 107.113487 347.399392 
L 108.576602 346.791057 
L 110.039718 346.223278 
L 111.502834 345.614942 
L 112.965949 345.047163 
L 114.429065 344.438828 
L 115.892181 343.871048 
L 117.355296 343.262713 
L 119.062264 342.613822 
L 120.52538 342.005487 
L 122.232348 341.356596 
L 123.695464 340.748261 
L 125.402432 340.09937 
L 126.865548 339.491034 
L 128.572516 338.842144 
L 130.035632 338.233808 
L 131.7426 337.584917 
L 132.961863 337.098249 
L 134.424979 336.53047 
L 135.644242 336.043802 
L 137.107357 335.476022 
L 138.32662 334.989354 
L 139.789736 334.421574 
L 141.008999 333.934906 
L 142.715967 333.286015 
L 143.93523 332.799347 
L 145.642198 332.150456 
L 147.105314 331.542121 
L 149.056135 330.812119 
L 150.275398 330.32545 
L 151.982366 329.676559 
L 153.201629 329.189891 
L 155.15245 328.459889 
L 156.371713 327.973221 
L 158.078681 327.32433 
L 159.297944 326.837662 
L 161.248765 326.10766 
L 162.468028 325.620991 
L 164.418849 324.890989 
L 165.638112 324.404321 
L 167.832786 323.593207 
L 169.052049 323.106539 
L 171.002869 322.376537 
L 172.222132 321.889869 
L 174.660659 320.997644 
L 175.879922 320.510975 
L 178.074595 319.699862 
L 179.293858 319.213194 
L 181.732384 318.320969 
L 182.951647 317.8343 
L 185.390173 316.942075 
L 186.609436 316.455407 
L 189.291815 315.482071 
L 190.511078 314.995403 
L 193.193457 314.022066 
L 194.41272 313.535398 
L 197.338951 312.480951 
L 198.558214 311.994282 
L 201.728298 310.858723 
L 202.947561 310.372055 
L 206.117645 309.236496 
L 207.093055 308.871495 
L 209.531581 307.97927 
L 210.506992 307.614269 
L 213.18937 306.640932 
L 214.164781 306.275931 
L 217.091012 305.221484 
L 218.066422 304.856482 
L 220.992654 303.802035 
L 221.968064 303.437034 
L 225.138148 302.301474 
L 226.113558 301.936473 
L 229.283642 300.800914 
L 230.259053 300.435913 
L 233.916842 299.138131 
L 234.892252 298.77313 
L 239.037746 297.313126 
L 240.013157 296.948124 
L 244.402504 295.407009 
L 245.377914 295.042007 
L 250.254966 293.338669 
L 251.230377 292.973668 
L 256.838987 291.026995 
L 257.814397 290.661994 
L 264.64227 288.309764 
L 265.61768 287.944763 
L 274.396374 284.943643 
L 275.371785 284.578642 
L 290.490646 279.468626 
L 291.466057 279.103625 
L 326.580832 267.5047 
L 327.31239 267.301921 
L 337.310347 264.057467 
L 338.041904 263.854688 
L 345.601335 261.421347 
L 346.332893 261.218569 
L 352.429208 259.271896 
L 353.160766 259.069118 
L 358.281671 257.446891 
L 359.013228 257.244112 
L 363.646428 255.784108 
L 364.377986 255.581329 
L 368.767333 254.202436 
L 369.498891 253.999658 
L 373.400532 252.782987 
L 374.13209 252.580209 
L 377.546027 251.525761 
L 378.277584 251.322983 
L 381.691521 250.268535 
L 382.423079 250.065757 
L 385.593163 249.09242 
L 386.32472 248.889642 
L 389.250952 247.997417 
L 389.982509 247.794638 
L 392.664888 246.983525 
L 393.396446 246.780746 
L 396.078825 245.969633 
L 396.810382 245.766854 
L 399.492761 244.955741 
L 400.224319 244.752962 
L 402.662845 244.02296 
L 403.394403 243.820182 
L 405.589076 243.171291 
L 406.320634 242.968512 
L 408.75916 242.23851 
L 409.490718 242.035732 
L 411.441539 241.467952 
L 412.173097 241.265174 
L 414.36777 240.616283 
L 415.099328 240.413504 
L 417.050149 239.845725 
L 417.781706 239.642946 
L 419.732527 239.075167 
L 420.464085 238.872388 
L 422.414906 238.304609 
L 423.390316 238.061275 
L 425.828842 237.331273 
L 426.804253 237.087938 
L 428.998926 236.439048 
L 429.730484 236.236269 
L 431.437452 235.749601 
L 432.16901 235.546823 
L 433.875978 235.060154 
L 434.851389 234.81682 
L 437.046062 234.167929 
L 438.021473 233.924595 
L 439.972294 233.356816 
L 440.947704 233.113482 
L 442.898525 232.545702 
L 443.873935 232.302368 
L 445.824756 231.734589 
L 446.800167 231.491254 
L 448.750987 230.923475 
L 449.726398 230.680141 
L 451.433366 230.193473 
L 452.408776 229.950139 
L 454.115745 229.46347 
L 455.091155 229.220136 
L 456.798123 228.733468 
L 457.773534 228.490134 
L 459.480502 228.003466 
L 460.455912 227.760132 
L 462.162881 227.273464 
L 463.138291 227.030129 
L 464.601407 226.624573 
L 465.576817 226.381239 
L 467.039933 225.975682 
L 468.015343 225.732348 
L 469.478459 225.326791 
L 470.453869 225.083457 
L 471.916985 224.6779 
L 472.892395 224.434566 
L 474.355511 224.029009 
L 475.330921 223.785675 
L 476.794037 223.380118 
L 477.769447 223.136784 
L 478.988711 222.812339 
L 479.964121 222.569004 
L 481.427237 222.163448 
L 482.6465 221.879558 
L 483.378057 221.676779 
L 483.378057 221.676779 
" clip-path="url(#pc13149eaf3)" style="fill: none; stroke-dasharray: 4.5,1.5,1.5,1.5; stroke-dashoffset: 0; stroke: #000000; stroke-width: 1.5"/>
   </g>
   <g id="patch_9">
    <path d="M 52.966016 368.078734 
L 52.966016 214.705258 
" style="fill: none; stroke: #000000; stroke-width: 0.8; stroke-linejoin: miter; stroke-linecap: square"/>
   </g>
   <g id="patch_10">
    <path d="M 503.873869 368.078734 
L 503.873869 214.705258 
" style="fill: none; stroke: #000000; stroke-width: 0.8; stroke-linejoin: miter; stroke-linecap: square"/>
   </g>
   <g id="patch_11">
    <path d="M 52.966016 368.078734 
L 503.873869 368.078734 
" style="fill: none; stroke: #000000; stroke-width: 0.8; stroke-linejoin: miter; stroke-linecap: square"/>
   </g>
   <g id="patch_12">
    <path d="M 52.966016 214.705258 
L 503.873869 214.705258 
" style="fill: none; stroke: #000000; stroke-width: 0.8; stroke-linejoin: miter; stroke-linecap: square"/>
   </g>
   <g id="text_39">
    <!-- Elevation versus simulated time -->
    <g transform="translate(191.528036 208.705258) scale(0.108 -0.108)">
     <use xlink:href="#DejaVuSans-28"/>
     <use xlink:href="#DejaVuSans-4f" transform="translate(63.1875 0)"/>
     <use xlink:href="#DejaVuSans-48" transform="translate(90.96875 0)"/>
     <use xlink:href="#DejaVuSans-59" transform="translate(152.5 0)"/>
     <use xlink:href="#DejaVuSans-44" transform="translate(211.6875 0)"/>
     <use xlink:href="#DejaVuSans-57" transform="translate(272.96875 0)"/>
     <use xlink:href="#DejaVuSans-4c" transform="translate(312.171875 0)"/>
     <use xlink:href="#DejaVuSans-52" transform="translate(339.953125 0)"/>
     <use xlink:href="#DejaVuSans-51" transform="translate(401.140625 0)"/>
     <use xlink:href="#DejaVuSans-3" transform="translate(464.515625 0)"/>
     <use xlink:href="#DejaVuSans-59" transform="translate(496.296875 0)"/>
     <use xlink:href="#DejaVuSans-48" transform="translate(555.484375 0)"/>
     <use xlink:href="#DejaVuSans-55" transform="translate(617.015625 0)"/>
     <use xlink:href="#DejaVuSans-56" transform="translate(658.125 0)"/>
     <use xlink:href="#DejaVuSans-58" transform="translate(710.21875 0)"/>
     <use xlink:href="#DejaVuSans-56" transform="translate(773.59375 0)"/>
     <use xlink:href="#DejaVuSans-3" transform="translate(825.6875 0)"/>
     <use xlink:href="#DejaVuSans-56" transform="translate(857.46875 0)"/>
     <use xlink:href="#DejaVuSans-4c" transform="translate(909.5625 0)"/>
     <use xlink:href="#DejaVuSans-50" transform="translate(937.34375 0)"/>
     <use xlink:href="#DejaVuSans-58" transform="translate(1034.75 0)"/>
     <use xlink:href="#DejaVuSans-4f" transform="translate(1098.125 0)"/>
     <use xlink:href="#DejaVuSans-44" transform="translate(1125.90625 0)"/>
     <use xlink:href="#DejaVuSans-57" transform="translate(1187.1875 0)"/>
     <use xlink:href="#DejaVuSans-48" transform="translate(1226.390625 0)"/>
     <use xlink:href="#DejaVuSans-47" transform="translate(1287.921875 0)"/>
     <use xlink:href="#DejaVuSans-3" transform="translate(1351.40625 0)"/>
     <use xlink:href="#DejaVuSans-57" transform="translate(1383.1875 0)"/>
     <use xlink:href="#DejaVuSans-4c" transform="translate(1422.390625 0)"/>
     <use xlink:href="#DejaVuSans-50" transform="translate(1450.171875 0)"/>
     <use xlink:href="#DejaVuSans-48" transform="translate(1547.578125 0)"/>
    </g>
   </g>
   <g id="legend_2">
    <g id="patch_13">
     <path d="M 57.866016 272.807992 
L 88.940547 272.807992 
Q 90.340547 272.807992 90.340547 271.407992 
L 90.340547 219.605258 
Q 90.340547 218.205258 88.940547 218.205258 
L 57.866016 218.205258 
Q 56.466016 218.205258 56.466016 219.605258 
L 56.466016 271.407992 
Q 56.466016 272.807992 57.866016 272.807992 
z
" style="fill: #ffffff; opacity: 0.8; stroke: #cccccc; stroke-linejoin: miter"/>
    </g>
    <g id="line2d_74">
     <path d="M 59.266016 223.874164 
L 66.266016 223.874164 
L 73.266016 223.874164 
" style="fill: none; stroke-dasharray: 1.5,2.475; stroke-dashoffset: 0; stroke: #000000; stroke-width: 1.5"/>
    </g>
    <g id="text_40">
     <!-- P0 -->
     <g transform="translate(78.866016 226.324164) scale(0.07 -0.07)">
      <use xlink:href="#DejaVuSans-33"/>
      <use xlink:href="#DejaVuSans-13" transform="translate(60.296875 0)"/>
     </g>
    </g>
    <g id="line2d_75">
     <path d="M 59.266016 234.374711 
L 66.266016 234.374711 
L 73.266016 234.374711 
" style="fill: none; stroke: #000000; stroke-width: 1.5; stroke-linecap: square"/>
    </g>
    <g id="text_41">
     <!-- P1 -->
     <g transform="translate(78.866016 236.824711) scale(0.07 -0.07)">
      <use xlink:href="#DejaVuSans-33"/>
      <use xlink:href="#DejaVuSans-14" transform="translate(60.296875 0)"/>
     </g>
    </g>
    <g id="line2d_76">
     <path d="M 59.266016 244.875258 
L 66.266016 244.875258 
L 73.266016 244.875258 
" style="fill: none; stroke-dasharray: 5.55,2.4; stroke-dashoffset: 0; stroke: #000000; stroke-width: 1.5"/>
    </g>
    <g id="text_42">
     <!-- P2 -->
     <g transform="translate(78.866016 247.325258) scale(0.07 -0.07)">
      <use xlink:href="#DejaVuSans-33"/>
      <use xlink:href="#DejaVuSans-15" transform="translate(60.296875 0)"/>
     </g>
    </g>
    <g id="line2d_77">
     <path d="M 59.266016 255.375805 
L 66.266016 255.375805 
L 73.266016 255.375805 
" style="fill: none; stroke-dasharray: 9.6,2.4,1.5,2.4; stroke-dashoffset: 0; stroke: #000000; stroke-width: 1.5"/>
    </g>
    <g id="text_43">
     <!-- P3 -->
     <g transform="translate(78.866016 257.825805) scale(0.07 -0.07)">
      <use xlink:href="#DejaVuSans-33"/>
      <use xlink:href="#DejaVuSans-16" transform="translate(60.296875 0)"/>
     </g>
    </g>
    <g id="line2d_78">
     <path d="M 59.266016 265.876352 
L 66.266016 265.876352 
L 73.266016 265.876352 
" style="fill: none; stroke-dasharray: 4.5,1.5,1.5,1.5; stroke-dashoffset: 0; stroke: #000000; stroke-width: 1.5"/>
    </g>
    <g id="text_44">
     <!-- P4 -->
     <g transform="translate(78.866016 268.326352) scale(0.07 -0.07)">
      <use xlink:href="#DejaVuSans-33"/>
      <use xlink:href="#DejaVuSans-17" transform="translate(60.296875 0)"/>
     </g>
    </g>
   </g>
  </g>
 </g>
 <defs>
  <clipPath id="p2aa8decb4a">
   <rect x="52.966016" y="21.406313" width="450.907853" height="153.373477"/>
  </clipPath>
  <clipPath id="pc13149eaf3">
   <rect x="52.966016" y="214.705258" width="450.907853" height="153.373477"/>
  </clipPath>
 </defs>
</svg>
